<?xml version="1.0" encoding="UTF-8"?>
<!DOCTYPE svg PUBLIC "-//W3C//DTD SVG 1.1//EN" "http://www.w3.org/Graphics/SVG/1.1/DTD/svg11.dtd">
<!-- Creator: CorelDRAW X8 -->
<svg xmlns="http://www.w3.org/2000/svg" xml:space="preserve" width="210mm" height="297mm" version="1.1" style="shape-rendering:geometricPrecision; text-rendering:geometricPrecision; image-rendering:optimizeQuality; fill-rule:evenodd; clip-rule:evenodd"
viewBox="0 0 21000 29700"
 xmlns:xlink="http://www.w3.org/1999/xlink">
 <defs>
  <style type="text/css">
   <![CDATA[
    .fil0 {fill:#2B2A29;fill-rule:nonzero}
   ]]>
  </style>
 </defs>
 <g id="Warstwa_x0020_1">
  <metadata id="CorelCorpID_0Corel-Layer"/>
  <path class="fil0" d="M1214 15192l337 0c2,29 13,50 34,64 34,24 114,35 240,35 124,0 202,-7 235,-22 29,-13 44,-32 44,-60 0,-31 -19,-51 -56,-61 -16,-5 -111,-8 -282,-11 -159,0 -258,-2 -295,-8 -104,-14 -174,-47 -210,-101 -28,-40 -41,-94 -41,-161 0,-131 48,-217 144,-256 72,-30 228,-45 466,-45 166,0 288,8 366,23 43,9 80,25 110,48 31,24 52,52 63,84 10,28 16,67 20,118l-337 0c-6,-23 -14,-37 -23,-43 -27,-18 -97,-26 -208,-26 -115,0 -190,6 -227,19 -29,10 -43,27 -43,53 0,36 26,55 79,59 42,3 192,6 451,8 125,0 215,21 270,63 56,40 84,111 84,212 0,78 -14,139 -44,182 -19,30 -46,53 -80,70 -34,17 -81,30 -141,39 -83,13 -205,20 -366,20 -175,0 -301,-8 -379,-24 -50,-11 -91,-32 -126,-61 -34,-29 -58,-65 -71,-108 -8,-30 -13,-67 -14,-110zm1469 -604l331 0 0 885 -331 0 0 -885zm0 -363l331 0 0 249 -331 0 0 -249zm658 0l331 0 0 404 138 -90 0 204 -138 91 0 639 -331 0 0 -442 -141 91 0 -205 141 -91 0 -601zm1263 341c170,0 297,9 383,27 92,20 157,65 194,138 21,40 33,83 36,127 4,43 6,94 6,155 0,120 -6,203 -17,249 -25,100 -86,166 -181,198 -73,23 -215,35 -427,35 -188,0 -321,-9 -402,-28 -96,-23 -161,-75 -192,-158 -15,-39 -24,-80 -27,-122 -3,-52 -5,-110 -5,-174 0,-112 7,-189 21,-233 30,-92 93,-152 189,-181 76,-22 217,-33 422,-33zm-7 248c-107,0 -179,9 -218,26 -30,14 -51,38 -61,71 -10,29 -15,71 -15,127 0,62 6,106 17,130 17,33 55,56 114,68 40,7 95,10 167,10 115,0 192,-11 230,-33 25,-15 43,-39 51,-71 7,-25 10,-63 10,-115 0,-67 -8,-114 -23,-141 -17,-30 -55,-50 -114,-61 -41,-7 -94,-11 -158,-11zm772 -226l350 0 203 643 234 -643 314 0 239 633 206 -633 353 0 -329 885 -449 0 -174 -520 -178 520 -441 0 -328 -885zm2082 0l310 0 0 135 19 0c21,-41 48,-73 80,-95 63,-41 161,-62 295,-62 130,0 229,13 297,41 37,15 71,39 103,70 30,32 53,67 66,104 18,50 28,107 29,169 1,30 1,71 1,121l0 402 -331 0 0 -402c0,-71 -3,-121 -9,-148 -9,-46 -38,-76 -84,-90 -39,-13 -96,-19 -170,-19 -114,0 -190,20 -227,59 -25,26 -40,68 -46,125 -1,19 -2,60 -2,121l0 354 -331 0 0 -885zm1470 0l331 0 0 885 -331 0 0 -885zm0 -363l331 0 0 249 -331 0 0 -249zm943 640l-329 0c4,-69 19,-121 43,-156 38,-53 89,-89 153,-108 85,-25 234,-37 447,-37 164,0 275,8 333,24 53,14 97,46 132,96 33,47 50,133 50,256l0 533 -318 0 0 -120 -16 0c-24,51 -63,88 -116,110 -31,14 -76,23 -135,28 -46,3 -121,4 -225,4 -115,0 -198,-9 -247,-29 -59,-24 -98,-62 -118,-117 -12,-34 -18,-77 -18,-128 0,-103 25,-177 76,-223 55,-49 142,-76 262,-82 70,-3 160,-4 268,-4 78,0 136,6 173,20 24,9 47,25 68,49l15 0 0 -47c0,-60 -8,-99 -25,-117 -19,-20 -53,-32 -102,-37 -19,-2 -51,-3 -95,-3 -132,0 -211,6 -236,18 -22,10 -35,33 -40,70zm223 236c-112,0 -181,6 -208,20 -32,15 -48,40 -48,73 0,39 21,65 62,76 33,9 88,14 167,14 102,0 175,-5 219,-16 52,-12 77,-40 77,-84 0,-35 -18,-59 -53,-72 -19,-8 -91,-11 -216,-11zm2476 -1145l-1032 1788 -237 0 1030 -1788 239 0zm1269 1161l337 0c-3,68 -9,121 -21,160 -11,43 -33,80 -64,112 -32,33 -70,56 -114,70 -55,17 -118,27 -186,31 -74,3 -154,5 -241,5 -163,0 -283,-10 -361,-31 -92,-24 -153,-70 -184,-139 -26,-60 -40,-160 -40,-302 0,-132 14,-227 40,-286 32,-72 93,-119 180,-142 80,-21 208,-31 384,-31 183,0 316,12 401,36 88,25 146,73 175,145 18,46 29,114 32,202l-337 0c-5,-40 -17,-69 -38,-86 -37,-32 -115,-48 -233,-48 -98,0 -167,9 -206,27 -25,13 -43,35 -53,66 -9,30 -14,73 -14,129 0,66 8,113 23,140 17,30 54,50 110,61 39,7 87,10 144,10 120,0 197,-15 230,-45 18,-17 30,-45 36,-84zm584 -529l311 0 0 133 18 0c24,-45 55,-78 90,-101 58,-36 142,-54 251,-54 147,0 246,33 298,99 40,52 61,133 61,244 0,15 -1,39 -3,72l-311 0c0,-52 -6,-88 -16,-108 -22,-39 -75,-59 -159,-59 -78,0 -134,22 -167,64 -20,27 -34,68 -39,124 -2,22 -3,56 -3,103l0 368 -331 0 0 -885zm1865 -22c170,0 297,9 383,27 92,20 157,65 194,138 21,40 33,83 36,127 4,43 6,94 6,155 0,120 -6,203 -17,249 -25,100 -86,166 -181,198 -73,23 -215,35 -427,35 -188,0 -321,-9 -402,-28 -96,-23 -161,-75 -192,-158 -15,-39 -24,-80 -27,-122 -3,-52 -5,-110 -5,-174 0,-112 7,-189 21,-233 30,-92 93,-152 189,-181 76,-22 217,-33 422,-33zm-7 248c-107,0 -179,9 -218,26 -30,14 -51,38 -61,71 -10,29 -15,71 -15,127 0,62 6,106 17,130 17,33 55,56 114,68 40,7 95,10 167,10 116,0 193,-11 230,-33 25,-15 43,-39 51,-71 7,-25 10,-63 10,-115 0,-67 -7,-114 -23,-141 -17,-30 -55,-50 -114,-61 -41,-7 -94,-11 -158,-11zm850 378l337 0c2,29 13,50 34,64 34,24 114,35 240,35 124,0 202,-7 235,-22 29,-13 44,-32 44,-60 0,-31 -19,-51 -56,-61 -16,-5 -111,-8 -282,-11 -159,0 -258,-2 -295,-8 -104,-14 -174,-47 -210,-101 -28,-40 -41,-94 -41,-161 0,-131 48,-217 144,-256 72,-30 228,-45 466,-45 166,0 288,8 366,23 43,9 80,25 110,48 31,24 52,52 63,84 10,28 16,67 20,118l-337 0c-6,-23 -14,-37 -23,-43 -27,-18 -97,-26 -208,-26 -115,0 -190,6 -227,19 -29,10 -43,27 -43,53 0,36 26,55 79,59 42,3 192,6 451,8 125,0 215,21 270,63 56,40 84,111 84,212 0,78 -14,139 -44,182 -19,30 -46,53 -80,70 -34,17 -81,30 -141,39 -83,13 -205,20 -366,20 -175,0 -301,-8 -379,-24 -50,-11 -91,-32 -126,-61 -34,-29 -58,-65 -71,-108 -8,-30 -13,-67 -14,-110zm1441 0l337 0c2,29 14,50 34,64 35,24 115,35 240,35 124,0 203,-7 236,-22 29,-13 44,-32 44,-60 0,-31 -19,-51 -56,-61 -17,-5 -111,-8 -282,-11 -160,0 -258,-2 -296,-8 -103,-14 -173,-47 -210,-101 -27,-40 -41,-94 -41,-161 0,-131 48,-217 144,-256 73,-30 228,-45 466,-45 167,0 289,8 367,23 42,9 79,25 110,48 30,24 51,52 62,84 10,28 17,67 20,118l-337 0c-6,-23 -13,-37 -22,-43 -28,-18 -97,-26 -209,-26 -114,0 -190,6 -227,19 -29,10 -43,27 -43,53 0,36 26,55 79,59 42,3 192,6 452,8 124,0 214,21 269,63 56,40 85,111 85,212 0,78 -15,139 -44,182 -20,30 -47,53 -81,70 -34,17 -81,30 -140,39 -84,13 -206,20 -367,20 -174,0 -301,-8 -379,-24 -49,-11 -91,-32 -126,-61 -34,-29 -58,-65 -70,-108 -9,-30 -14,-67 -15,-110z"/>
 </g>
</svg>
