<svg viewBox="0 0 103.99835 74.620003">
  <g transform="matrix(0.01,0,0,0.01,-50.71365,-38.243853)">
    <g style="clip-rule:evenodd;fill-rule:evenodd;image-rendering:optimizeQuality;shape-rendering:geometricPrecision;text-rendering:geometricPrecision"
      transform="translate(-228.63455,-7294.6145)">
      <g>
        <path
          d="m 5690,13144 h 1226 c 619,-1203 1873,-2025 3318,-2025 1446,0 2699,822 3319,2025 h 1757 c 317,0 492,209 326,504 l -1423,2518 c -161,286 -298,390 -589,390 h -71 c -620,1203 -1873,2025 -3319,2025 -1445,0 -2699,-822 -3318,-2025 H 5690 c -214,0 -390,-175 -390,-390 v -2632 c 0,-215 176,-390 390,-390 z m 4698,586 v 521 0 800 H 9212 v -89 l 884,-605 v -627 h -165 l -1331,967 v 858 h 1788 v 417 h 649 v -417 h 330 l 291,-504 h -621 v -1321 z m 2735,-486 -1855,3214 h -240 l 1852,-3214 z m -100,486 h 1212 v 519 l -952,1723 h -862 l 948,-1677 h -672 z m -1228,0 h 636 l -326,565 h -307 -3 z m -4933,837 h -662 c 0,-181 7,-319 22,-413 17,-117 61,-207 127,-272 66,-64 162,-109 286,-131 173,-32 480,-48 921,-48 418,0 678,5 779,14 169,16 291,55 368,116 76,61 124,145 142,249 13,70 20,149 23,237 l -417,302 v 488 c -99,23 -221,39 -365,48 -599,36 -941,62 -1026,72 -95,11 -157,42 -182,95 -10,22 -14,67 -18,134 h 1591 v 246 h 456 v 268 H 6233 c -4,-90 -5,-166 -5,-228 0,-277 8,-470 24,-580 32,-211 154,-343 363,-395 107,-26 221,-45 342,-54 l 468,-37 c 340,-26 532,-42 577,-47 105,-11 172,-35 201,-73 18,-23 28,-69 28,-139 0,-78 -11,-130 -33,-156 -27,-34 -88,-55 -181,-63 -54,-4 -189,-6 -406,-6 -302,0 -507,8 -613,23 -62,9 -101,32 -115,68 -13,35 -20,129 -21,282 z m 5573,2160 -313,-252 c -472,548 -1155,862 -1881,861 -880,-1 -1649,-452 -2090,-1137 h -466 c 482,916 1443,1537 2556,1539 848,1 1645,-368 2194,-1011 z M 8159,13491 c 362,-558 946,-969 1656,-1095 466,-83 940,-32 1378,149 l 77,32 -178,395 1309,-105 -790,-1049 -176,392 -72,-30 c -514,-215 -1069,-278 -1618,-180 -908,162 -1641,725 -2044,1476 153,0 305,4 458,15 z" />
      </g>
    </g>
  </g>
</svg>