<?xml version="1.0" encoding="UTF-8"?>
<!DOCTYPE svg PUBLIC "-//W3C//DTD SVG 1.1//EN" "http://www.w3.org/Graphics/SVG/1.1/DTD/svg11.dtd">
<!-- Creator: CorelDRAW X8 -->
<svg xmlns="http://www.w3.org/2000/svg" xml:space="preserve" width="210mm" height="297mm" version="1.1" style="shape-rendering:geometricPrecision; text-rendering:geometricPrecision; image-rendering:optimizeQuality; fill-rule:evenodd; clip-rule:evenodd"
viewBox="0 0 21000 29700"
 xmlns:xlink="http://www.w3.org/1999/xlink">
 <defs>
  <style type="text/css">
   <![CDATA[
    .str0 {stroke:#FEFEFE;stroke-width:178.89;stroke-linecap:round;stroke-linejoin:round}
    .fil3 {fill:none;fill-rule:nonzero}
    .fil1 {fill:#952825}
    .fil4 {fill:#2B2A29;fill-rule:nonzero}
    .fil2 {fill:#FEFEFE;fill-opacity:0.501961}
    .fil0 {fill:url(#id5)}
   ]]>
  </style>
      <clipPath id="id0">
       <rect x="3489" y="15828" width="14283" height="2786"/>
      </clipPath>
      <clipPath id="id1">
       <rect x="6558" y="8038" width="8132" height="7147"/>
      </clipPath>
      <mask id="id2">
  <linearGradient id="id3" gradientUnits="userSpaceOnUse" x1="14384.7" y1="15604.1" x2="12413.5" y2="12835.3">
   <stop offset="0" style="stop-opacity:1; stop-color:white"/>
   <stop offset="1" style="stop-opacity:0; stop-color:white"/>
  </linearGradient>
       <rect style="fill:url(#id3)" x="9379" y="10939" width="4733" height="3702"/>
      </mask>
      <clipPath id="id4">
       <rect x="7608" y="9216" width="5995" height="4803"/>
      </clipPath>
  <linearGradient id="id5" gradientUnits="userSpaceOnUse" x1="9608.5" y1="13593.9" x2="11638.3" y2="20843.1">
   <stop offset="0" style="stop-opacity:1; stop-color:#2B2A29"/>
   <stop offset="0.0784314" style="stop-opacity:1; stop-color:#FEFEFE"/>
   <stop offset="0.160784" style="stop-opacity:1; stop-color:#565655"/>
   <stop offset="0.25098" style="stop-opacity:1; stop-color:#FEFEFE"/>
   <stop offset="0.321569" style="stop-opacity:1; stop-color:#1C1B17"/>
   <stop offset="0.380392" style="stop-opacity:1; stop-color:#B0B0B1"/>
   <stop offset="0.431373" style="stop-opacity:1; stop-color:#FEFEFE"/>
   <stop offset="0.501961" style="stop-opacity:1; stop-color:#1C1B17"/>
   <stop offset="0.580392" style="stop-opacity:1; stop-color:whitesmoke"/>
   <stop offset="0.678431" style="stop-opacity:1; stop-color:#1C1B17"/>
   <stop offset="0.741176" style="stop-opacity:1; stop-color:#FEFEFE"/>
   <stop offset="0.811765" style="stop-opacity:1; stop-color:#1C1B17"/>
   <stop offset="0.901961" style="stop-opacity:1; stop-color:#FEFEFE"/>
   <stop offset="1" style="stop-opacity:1; stop-color:#1C1B17"/>
  </linearGradient>
 </defs>
 <g id="Warstwa_x0020_1">
  <metadata id="CorelCorpID_0Corel-Layer"/>
  <g id="_2639120271072">
   <g>
    <g>
     <path class="fil0" d="M14506 17300l-5 -20 -3 -20 -3 -21 -2 -21 0 -20 0 -526 -754 754 0 809 -1 21 -2 23 -3 23 -4 22 -5 21 -6 21 -7 21 -9 19 -9 19 -10 18 -11 18 -12 17 -13 16 -13 15 -14 15 -14 13 -15 13 -15 12 -16 12 -17 10 -16 10 -17 9 -18 8 -17 7 -18 7 -19 5 -18 5 -18 4 -19 3 -19 2 -19 2 -17 0 -172 0 -17 0 -19 -1 -18 -3 -19 -2 -18 -4 -18 -5 -18 -5 -18 -6 -18 -7 -17 -8 -18 -9 -17 -9 -16 -10 -16 -11 -16 -12 -15 -13 -15 -13 -14 -15 -14 -15 -13 -16 -12 -17 -11 -18 -10 -18 -10 -20 -8 -20 -8 -20 -6 -22 -6 -21 -4 -23 -3 -23 -2 -23 0 -23 0 -808 -759 -758 0 531 0 20 -2 21 -2 21 -4 20 -5 20 -5 20 -7 19 -7 19 -9 18 -9 18 -10 18 -11 16 -11 17 -13 15 -13 15 -13 15 -15 13 -15 13 -15 13 -17 11 -16 11 -18 10 -18 9 -18 8 -19 8 -19 6 -20 6 -20 5 -20 3 -21 3 -21 2 -20 0 -190 0 549 540 15 16 15 18 14 18 12 20 10 19 9 21 8 20 5 21 4 22 3 21 1 21 -1 21 -3 21 -4 21 -5 20 -7 19 -9 19 -10 19 -11 17 -13 17 -14 15 -15 15 -16 14 -17 12 -19 11 -19 10 -20 8 -21 7 -22 5 -22 4 -22 2 -21 1 -564 0 -337 -333 -714 -702 -530 0 0 622 0 20 -2 21 -2 21 -4 20 -5 20 -5 20 -7 19 -7 19 -9 19 -9 17 -10 18 -11 17 -11 16 -13 15 -13 16 -13 14 -15 14 -15 13 -15 12 -16 11 -17 11 -18 10 -18 9 -18 9 -19 7 -19 7 -20 5 -20 5 -20 4 -21 2 -21 2 -20 1 -83 0 -5 0 -5 -1 -5 0 -5 0 -5 0 -5 -1 -4 0 -298 0 -21 0 -23 -2 -21 -3 -22 -5 -20 -5 -20 -7 -20 -7 -18 -9 -18 -9 -17 -10 -17 -10 -16 -12 -15 -11 -14 -12 -13 -13 -14 -12 -12 -13 -12 -13 -11 -14 -11 -13 -10 -13 -10 -14 -10 -13 -9 -14 -8 -13 -8 -13 -8 -13 -8 -13 -7 -12 -7 -12 -6 -12 -6 -11 -820 -1456 -564 1006 688 0 39 2 41 7 39 11 36 15 34 20 31 22 27 26 24 28 20 29 18 31 14 32 12 33 8 34 7 34 3 34 1 34 -1 34 -4 34 -6 33 -9 34 -11 32 -14 32 -17 30 -19 30 -23 27 -26 26 -29 22 -33 20 -35 16 -37 12 -40 7 -38 2 -1759 0 -17 0 -18 -2 -18 -3 -18 -4 -18 -5 -18 -6 -18 -7 -17 -9 -17 -10 -17 -12 -16 -13 -15 -14 -14 -16 -13 -17 -12 -19 -10 -20 -9 -21 -7 -22 -5 -22 -3 -24 -2 -24 1 -24 2 -25 4 -25 6 -25 7 -25 10 -26 10 -26 13 -26 14 -27 16 -27 16 -24 7 -11 283 -473 -1633 0 0 622 0 20 -2 21 -3 21 -3 20 -5 20 -6 20 -6 19 -8 19 -8 19 -9 17 -10 18 -11 17 -11 16 -13 15 -13 16 -13 14 -15 14 -15 13 -16 12 -16 11 -16 11 -18 10 -18 9 -18 9 -19 7 -19 7 -20 5 -20 5 -20 4 -21 2 -21 2 -20 1 -85 0 -19 -1 -21 -2 -21 -2 -20 -4 -20 -5 -20 -5 -20 -7 -18 -7 -19 -9 -18 -9 -17 -10 -17 -11 -16 -11 -16 -12 -15 -13 -14 -14 -14 -14 -13 -16 -12 -15 -12 -16 -10 -17 -10 -18 -10 -17 -8 -19 -7 -19 -7 -19 -6 -20 -4 -20 -4 -20 -3 -21 -1 -21 -1 -20 0 -2030 0 -1 0 -1 0 -1 0 -1 0 -4 0 -1 0 -3 1 -1 0 -3 0 -1 0 0 0 -4 0 -1 0 -1 0 -1 0 -2 0 -1 0 -1 1 -4 0 -1 0 -1 0 -1 0 -1 0 -2 0 -1 0 -1 0 -2 2 -10 1 -10 2 -10 2 -11 2 -10 2 -10 3 -10 1 -2 0 -3 3 -10 3 -7 1 -1 0 -1 0 -1 1 -1 1 -3 0 -1 1 -1 0 -1 1 -2 0 -1 0 0 1 -3 1 -2 0 -1 1 -1 0 -1 1 -1 0 -1 1 -3 1 -1 0 -1 0 -1 1 -1 1 -2 0 -1 0 0 1 -2 1 -2 0 0 1 -1 0 -1 1 -2 0 -1 1 0 1 -2 0 -2 1 0 0 -1 0 -1 1 -2 1 -1 0 0 1 -2 1 -2 0 0 0 -1 1 -1 1 -2 0 0 1 -1 1 -2 1 -1 0 -1 0 -1 1 -1 3 -5 1 -1 0 -1 0 0 1 -2 1 -1 2 -3 1 -2 2 -3 0 -1 0 0 1 -1 1 -2 8 -11 8 -11 8 -11 8 -11 9 -10 10 -10 9 -10 10 -9 2 -1 0 -1 1 0 1 -1 1 -1 1 -1 0 0 2 -1 1 -2 1 0 0 -1 2 -1 1 -1 0 0 1 -1 1 -1 3 -2 0 0 1 -1 1 -1 3 -2 2 -1 1 -1 0 0 0 -1 5 -4 1 0 1 -1 1 0 1 -1 2 -2 2 -1 4 -3 1 -1 1 0 1 -1 1 -1 2 -1 0 0 1 -1 1 -1 2 0 0 -1 1 0 2 -1 1 -1 1 -1 0 0 1 -1 2 -1 1 0 2 -2 3 -1 0 0 1 -1 2 -1 0 0 1 -1 2 -1 11 -6 12 -6 12 -6 12 -5 12 -5 13 -5 13 -4 13 -3 13 -4 13 -3 13 -2 14 -2 13 -2 14 -1 14 -1 13 0 83 0 2 0 2393 0 20 1 21 1 20 3 21 4 20 4 20 6 19 6 19 8 18 8 18 9 17 10 17 11 16 12 16 12 15 13 14 14 14 14 13 15 13 16 11 16 11 17 10 17 9 18 8 18 8 19 6 20 6 19 5 20 3 21 3 21 2 21 0 19 0 136 168 -279 0 -1 8 -13 9 -14 9 -14 10 -13 10 -13 11 -13 11 -12 11 -12 11 -12 12 -11 12 -11 13 -10 13 -11 13 -10 13 -9 14 -9 14 -9 14 -8 14 -8 15 -7 15 -7 15 -7 15 -6 15 -5 16 -5 16 -5 16 -3 16 -4 17 -3 16 -2 17 -2 17 -1 15 0 278 0 16 0 17 2 17 1 17 3 17 3 17 3 17 4 16 5 16 6 16 5 16 7 15 7 15 7 15 8 15 8 15 9 14 9 14 10 13 10 14 10 13 11 12 11 13 11 12 12 11 13 12 12 11 13 10 14 10 14 10 14 9 14 9 14 592 1041 0 -897 0 -1 0 -1 0 -1 0 -1 0 -4 0 -1 0 -3 0 -1 0 -1 0 -1 0 -2 0 0 0 -4 0 -1 0 -1 0 -1 0 -2 0 -1 1 -1 0 -3 0 -2 0 -1 0 -1 0 -1 0 -2 0 -1 1 -1 0 -2 1 -10 1 -10 2 -10 2 -11 2 -10 3 -10 2 -10 1 -2 1 -3 3 -10 2 -7 1 -1 0 0 2 -6 0 -1 1 -1 0 -1 1 -2 0 -1 0 0 1 -3 1 -2 1 -1 0 -1 1 -1 0 -1 0 -1 1 -3 1 -1 0 -1 1 -1 0 -1 1 -2 0 -1 1 0 0 -2 1 -1 1 -2 0 0 0 -1 1 -2 1 -1 0 0 1 -2 1 -2 0 0 0 -1 1 -1 1 -2 0 -1 0 0 1 -2 1 -1 0 -1 1 -1 0 -1 1 -2 1 0 0 -1 1 -2 1 -1 0 -1 0 -1 1 -1 3 -5 1 -1 0 -1 1 -1 0 -1 1 -1 0 0 2 -3 1 -2 0 0 2 -3 0 -1 0 0 1 -1 1 -2 8 -11 8 -11 8 -11 9 -11 9 -10 9 -10 10 -10 10 -9 1 -1 1 -1 0 0 1 -1 1 -1 1 -1 1 0 1 -1 2 -2 0 0 1 -1 1 -1 1 -1 0 0 1 -1 2 -1 1 -1 1 -1 0 0 1 -1 5 -3 1 -1 1 -1 0 0 1 -1 3 -2 1 -1 3 -2 0 0 1 -1 3 -2 1 -1 2 -1 0 -1 1 0 1 -1 1 -1 1 0 1 -1 1 -1 3 -1 0 -1 1 0 2 -1 0 -1 1 0 2 -1 3 -2 0 0 1 -1 1 -1 1 0 2 -2 3 -1 0 0 1 -1 2 -1 1 0 0 -1 2 -1 11 -6 12 -6 12 -6 12 -5 13 -5 12 -5 13 -4 13 -3 13 -4 13 -3 13 -2 14 -2 14 -2 13 -1 14 -1 13 0 84 0 1 0 1928 0 0 0 1410 0 725 722 721 -722 925 0 3 0 2 0 4 0 3 0 3 0 3 0 3 0 2477 0 20 0 21 2 21 2 20 4 20 5 20 5 19 7 19 7 19 9 18 9 17 10 17 11 16 11 16 12 15 14 14 13 14 15 13 15 12 15 11 16 11 17 10 18 9 18 9 18 7 19 7 19 5 20 5 20 4 20 2 21 2 21 1 20 0 381 -2447 0 0 240 2033 0 20 0 21 2 21 2 20 4 20 5 20 5 19 7 19 7 19 9 18 9 17 10 17 11 16 11 16 13 15 13 14 13 14 15 13 15 12 15 11 17 11 16 10 18 9 18 9 18 7 19 7 19 5 20 5 20 4 20 2 21 2 21 1 20 0 996 -1 19 -2 21 -2 21 -4 21 -5 20 -5 19 -7 20 -7 18 -9 19 -9 18 -10 17 -11 17 -11 16 -12 16 -13 15 -14 14 -14 14 -15 13 -16 12 -16 12 -17 10 -18 10 -17 10 -19 8 -19 7 -19 7 -20 6 -20 4 -20 4 -21 3 -21 1 -20 1 -2478 0 -20 -1 -21 -1 -21 -3 -20 -4 -20 -4 -20 -6 -19 -7 -19 -7 -18 -8 -18 -10 -18 -10 -16 -10 -17 -12 -15 -12 -15 -13 -15 -14 -13 -14 -13 -15 -13 -16 -11 -16 -11 -17 -10 -17 -9 -18 -9 -19 -7 -18 -7 -20 -5 -19 -5 -20 -3 -21 -3 -21 -2 -21 0 -19 0 -366 2414 0 0 -255 -2001 0 -20 -1 -21 -2 -21 -2 -20 -4 -20 -5 -20 -5 -19 -7 -19 -7 -18 -8 -18 -10 -18 -10 -16 -10 -17 -12 -15 -12 -15 -13 -15 -14 -13 -14 -13 -15 -13 -16 -11 -16 -11 -17 -10 -17 -9 -18 -9 -19 -7 -19 -7 -19 -5 -20zm-8631 -543l0 -188 -1515 0 0 188 1515 0zm5229 0l0 -188 -1514 0 0 188 1514 0z"/>
     <g style="clip-path:url(#id0)">
      <image x="3489" y="15828" width="14283" height="2786" xlink:href="Parys_logo_3D_pion_Images\Parys_logo_3D_pion_ImgID1.png"/>
     </g>
    </g>
    <g>
     <g style="clip-path:url(#id1)">
      <image x="6558" y="8038" width="8132" height="7147" xlink:href="Parys_logo_3D_pion_Images\Parys_logo_3D_pion_ImgID2.png"/>
     </g>
     <path class="fil1" style="mask:url(#id2)" d="M14108 10943l0 2991c0,386 -317,703 -704,703l-4021 0c2008,-584 3694,-1925 4725,-3694z"/>
     <g style="clip-path:url(#id4)">
      <image x="7608" y="9216" width="5995" height="4803" xlink:href="Parys_logo_3D_pion_Images\Parys_logo_3D_pion_ImgID3.png"/>
     </g>
     <path class="fil2" d="M10611 9441c503,0 911,408 911,911 0,503 -408,911 -911,911 -503,0 -911,-408 -911,-911 0,-503 408,-911 911,-911zm1378 2633c180,0 327,146 327,327 0,181 -147,327 -327,327 -238,0 -264,-158 -477,-3l-447 304c-139,107 -129,308 23,432 246,202 557,331 901,331 768,0 1391,-623 1391,-1391 0,-768 -623,-1391 -1391,-1391 -570,0 -1059,342 -1274,832 -48,108 -163,107 -212,-3 -216,-488 -704,-829 -1273,-829 -768,0 -1391,623 -1391,1391 0,768 623,1391 1391,1391 344,0 655,-129 901,-331 152,-124 162,-325 23,-432l-447 -304c-213,-155 -239,3 -477,3 -180,0 -327,-146 -327,-327 0,-181 147,-327 327,-327 79,0 148,32 208,74l948 669c163,115 286,111 418,18l977 -687c60,-42 129,-74 208,-74z"/>
    </g>
   </g>
   <g>
    <path class="fil3 str0" d="M3481 20233l290 0c2,25 12,43 30,55 29,21 98,31 206,31 107,0 175,-7 203,-19 25,-11 38,-28 38,-52 0,-27 -16,-44 -48,-53 -14,-4 -96,-7 -243,-9 -137,0 -222,-2 -254,-7 -89,-12 -150,-41 -181,-87 -24,-35 -36,-81 -36,-138 0,-114 42,-187 125,-221 62,-26 196,-39 401,-39 143,0 248,7 316,20 36,8 68,22 94,42 27,20 45,44 54,72 9,24 14,58 17,101l-290 0c-5,-19 -12,-32 -19,-37 -24,-15 -84,-23 -180,-23 -98,0 -164,6 -196,17 -24,8 -37,24 -37,46 0,31 23,48 69,51 35,2 165,5 388,6 108,1 185,19 233,54 48,36 72,97 72,184 0,66 -13,119 -38,157 -16,25 -39,45 -69,60 -29,14 -70,25 -121,33 -72,11 -177,17 -315,17 -151,0 -260,-7 -327,-21 -43,-9 -78,-27 -108,-52 -30,-25 -50,-56 -61,-93 -7,-26 -12,-57 -13,-95zm1157 -520l285 0 0 762 -285 0 0 -762zm0 -312l285 0 0 214 -285 0 0 -214zm457 0l285 0 0 348 119 -78 0 176 -119 78 0 550 -285 0 0 -380 -121 78 0 -177 121 -78 0 -517zm980 293c145,0 255,8 329,24 79,16 135,56 167,118 18,35 29,71 32,110 3,36 4,81 4,133 0,103 -5,175 -15,214 -21,87 -73,143 -155,171 -63,20 -185,30 -368,30 -161,0 -276,-8 -346,-24 -83,-19 -138,-65 -166,-136 -12,-33 -20,-69 -22,-105 -3,-45 -5,-95 -5,-150 0,-96 6,-163 18,-200 26,-80 81,-131 163,-156 66,-19 187,-29 364,-29zm-7 214c-92,0 -154,7 -187,22 -26,12 -44,33 -53,62 -9,24 -13,61 -13,109 0,53 5,91 15,112 14,28 47,48 98,58 34,6 82,9 143,9 100,0 167,-9 199,-29 22,-13 37,-33 44,-60 5,-22 8,-55 8,-100 0,-58 -6,-98 -19,-121 -15,-26 -47,-44 -98,-52 -36,-7 -81,-10 -137,-10zm556 -195l302 0 174 554 202 -554 270 0 206 545 178 -545 304 0 -284 762 -386 0 -150 -448 -153 448 -380 0 -283 -762zm1684 0l268 0 0 116 16 0c18,-35 41,-62 69,-81 54,-36 138,-54 254,-54 112,0 197,12 256,35 32,13 61,34 88,61 27,28 46,57 57,89 16,44 24,92 25,146 1,26 1,61 1,104l0 346 -285 0 0 -346c0,-61 -3,-104 -8,-127 -8,-40 -32,-66 -72,-78 -34,-11 -83,-16 -147,-16 -98,0 -163,17 -195,50 -22,23 -35,59 -39,108 -2,17 -3,52 -3,105l0 304 -285 0 0 -762zm1158 0l285 0 0 762 -285 0 0 -762zm0 -312l285 0 0 214 -285 0 0 -214zm703 551l-284 0c4,-60 17,-104 38,-135 32,-45 76,-76 132,-92 73,-22 201,-33 384,-33 142,0 237,7 287,21 46,12 84,39 114,82 28,41 43,115 43,222l0 458 -274 0 0 -103 -14 0c-21,44 -54,75 -99,95 -28,12 -66,20 -117,23 -39,3 -104,4 -194,4 -99,0 -170,-8 -213,-25 -50,-20 -84,-54 -101,-100 -10,-30 -16,-67 -16,-111 0,-88 22,-152 66,-191 47,-43 123,-67 226,-71 60,-3 137,-4 231,-4 67,0 116,6 148,17 21,8 40,22 59,42l13 0 0 -40c0,-51 -7,-85 -22,-100 -16,-18 -45,-29 -87,-33 -17,-1 -44,-2 -82,-2 -114,0 -182,5 -204,16 -18,8 -30,28 -34,60zm192 203c-96,0 -156,5 -179,17 -28,13 -42,34 -42,63 0,34 18,56 54,66 28,7 76,11 144,11 88,0 151,-4 188,-13 45,-10 67,-35 67,-73 0,-30 -16,-51 -46,-62 -17,-6 -79,-9 -186,-9zm986 -174l677 0 0 217 -679 0 2 -217zm1875 188l291 0c-3,58 -8,104 -18,137 -10,37 -28,69 -56,97 -27,28 -59,48 -97,60 -48,15 -102,24 -160,27 -64,3 -133,4 -208,4 -140,0 -244,-8 -311,-26 -79,-21 -132,-61 -158,-120 -23,-51 -35,-138 -35,-261 0,-113 12,-195 35,-246 27,-61 79,-102 155,-122 68,-18 179,-27 331,-27 156,0 271,11 345,32 75,21 125,62 150,124 16,40 25,98 27,174l-290 0c-4,-34 -14,-59 -32,-74 -32,-28 -100,-41 -201,-41 -84,0 -143,7 -177,23 -22,11 -37,30 -46,57 -8,26 -12,63 -12,111 0,57 7,97 20,120 14,26 46,44 95,53 33,6 74,9 124,9 103,0 169,-13 198,-39 15,-15 26,-39 30,-72zm395 -456l267 0 0 115 16 0c21,-39 47,-68 78,-87 49,-31 122,-47 216,-47 126,0 211,28 256,85 35,45 53,115 53,210 0,13 -1,34 -3,62l-268 0c0,-44 -4,-75 -14,-93 -18,-33 -64,-50 -136,-50 -67,0 -115,18 -144,55 -18,23 -29,59 -33,107 -2,18 -3,48 -3,89l0 316 -285 0 0 -762zm1497 -19c146,0 256,8 330,24 79,16 135,56 167,118 18,35 28,71 31,110 3,36 5,81 5,133 0,103 -5,175 -15,214 -21,87 -73,143 -155,171 -63,20 -185,30 -368,30 -162,0 -277,-8 -346,-24 -83,-19 -139,-65 -166,-136 -12,-33 -20,-69 -23,-105 -3,-45 -4,-95 -4,-150 0,-96 6,-163 18,-200 26,-80 80,-131 162,-156 66,-19 188,-29 364,-29zm-6 214c-92,0 -154,7 -188,22 -26,12 -43,33 -53,62 -8,24 -12,61 -12,109 0,53 5,91 15,112 14,28 46,48 98,58 34,6 82,9 143,9 100,0 166,-9 198,-29 22,-13 37,-33 44,-60 6,-22 9,-55 9,-100 0,-58 -6,-98 -20,-121 -14,-26 -47,-44 -98,-52 -35,-7 -81,-10 -136,-10zm623 325l290 0c2,25 12,43 29,55 30,21 99,31 207,31 107,0 175,-7 203,-19 25,-11 38,-28 38,-52 0,-27 -16,-44 -48,-53 -15,-4 -96,-7 -243,-9 -138,0 -222,-2 -254,-7 -90,-12 -150,-41 -182,-87 -23,-35 -35,-81 -35,-138 0,-114 41,-187 124,-221 63,-26 196,-39 402,-39 143,0 248,7 315,20 37,8 68,22 95,42 26,20 44,44 54,72 8,24 14,58 17,101l-290 0c-5,-19 -12,-32 -20,-37 -23,-15 -83,-23 -179,-23 -99,0 -164,6 -196,17 -25,8 -37,24 -37,46 0,31 23,48 68,51 36,2 166,5 389,6 107,1 185,19 232,54 49,36 73,97 73,184 0,66 -13,119 -38,157 -17,25 -40,45 -69,60 -30,14 -70,25 -121,33 -72,11 -177,17 -316,17 -150,0 -259,-7 -326,-21 -43,-9 -79,-27 -109,-52 -29,-25 -50,-56 -61,-93 -7,-26 -11,-57 -12,-95zm1132 0l290 0c3,25 12,43 30,55 30,21 99,31 206,31 108,0 175,-7 203,-19 26,-11 38,-28 38,-52 0,-27 -16,-44 -48,-53 -14,-4 -95,-7 -243,-9 -137,0 -222,-2 -254,-7 -89,-12 -150,-41 -181,-87 -24,-35 -36,-81 -36,-138 0,-114 42,-187 125,-221 62,-26 196,-39 401,-39 143,0 248,7 316,20 36,8 68,22 94,42 27,20 45,44 54,72 9,24 14,58 18,101l-291 0c-5,-19 -11,-32 -19,-37 -24,-15 -84,-23 -180,-23 -98,0 -164,6 -195,17 -25,8 -38,24 -38,46 0,31 23,48 69,51 36,2 165,5 389,6 107,1 184,19 232,54 48,36 72,97 72,184 0,66 -12,119 -38,157 -16,25 -39,45 -69,60 -29,14 -69,25 -121,33 -72,11 -177,17 -315,17 -151,0 -260,-7 -327,-21 -42,-9 -78,-27 -108,-52 -30,-25 -50,-56 -61,-93 -7,-26 -12,-57 -13,-95z"/>
    <path id="1" class="fil4" d="M3481 20233l290 0c2,25 12,43 30,55 29,21 98,31 206,31 107,0 175,-7 203,-19 25,-11 38,-28 38,-52 0,-27 -16,-44 -48,-53 -14,-4 -96,-7 -243,-9 -137,0 -222,-2 -254,-7 -89,-12 -150,-41 -181,-87 -24,-35 -36,-81 -36,-138 0,-114 42,-187 125,-221 62,-26 196,-39 401,-39 143,0 248,7 316,20 36,8 68,22 94,42 27,20 45,44 54,72 9,24 14,58 17,101l-290 0c-5,-19 -12,-32 -19,-37 -24,-15 -84,-23 -180,-23 -98,0 -164,6 -196,17 -24,8 -37,24 -37,46 0,31 23,48 69,51 35,2 165,5 388,6 108,1 185,19 233,54 48,36 72,97 72,184 0,66 -13,119 -38,157 -16,25 -39,45 -69,60 -29,14 -70,25 -121,33 -72,11 -177,17 -315,17 -151,0 -260,-7 -327,-21 -43,-9 -78,-27 -108,-52 -30,-25 -50,-56 -61,-93 -7,-26 -12,-57 -13,-95zm1157 -520l285 0 0 762 -285 0 0 -762zm0 -312l285 0 0 214 -285 0 0 -214zm457 0l285 0 0 348 119 -78 0 176 -119 78 0 550 -285 0 0 -380 -121 78 0 -177 121 -78 0 -517zm980 293c145,0 255,8 329,24 79,16 135,56 167,118 18,35 29,71 32,110 3,36 4,81 4,133 0,103 -5,175 -15,214 -21,87 -73,143 -155,171 -63,20 -185,30 -368,30 -161,0 -276,-8 -346,-24 -83,-19 -138,-65 -166,-136 -12,-33 -20,-69 -22,-105 -3,-45 -5,-95 -5,-150 0,-96 6,-163 18,-200 26,-80 81,-131 163,-156 66,-19 187,-29 364,-29zm-7 214c-92,0 -154,7 -187,22 -26,12 -44,33 -53,62 -9,24 -13,61 -13,109 0,53 5,91 15,112 14,28 47,48 98,58 34,6 82,9 143,9 100,0 167,-9 199,-29 22,-13 37,-33 44,-60 5,-22 8,-55 8,-100 0,-58 -6,-98 -19,-121 -15,-26 -47,-44 -98,-52 -36,-7 -81,-10 -137,-10zm556 -195l302 0 174 554 202 -554 270 0 206 545 178 -545 304 0 -284 762 -386 0 -150 -448 -153 448 -380 0 -283 -762zm1684 0l268 0 0 116 16 0c18,-35 41,-62 69,-81 54,-36 138,-54 254,-54 112,0 197,12 256,35 32,13 61,34 88,61 27,28 46,57 57,89 16,44 24,92 25,146 1,26 1,61 1,104l0 346 -285 0 0 -346c0,-61 -3,-104 -8,-127 -8,-40 -32,-66 -72,-78 -34,-11 -83,-16 -147,-16 -98,0 -163,17 -195,50 -22,23 -35,59 -39,108 -2,17 -3,52 -3,105l0 304 -285 0 0 -762zm1158 0l285 0 0 762 -285 0 0 -762zm0 -312l285 0 0 214 -285 0 0 -214zm703 551l-284 0c4,-60 17,-104 38,-135 32,-45 76,-76 132,-92 73,-22 201,-33 384,-33 142,0 237,7 287,21 46,12 84,39 114,82 28,41 43,115 43,222l0 458 -274 0 0 -103 -14 0c-21,44 -54,75 -99,95 -28,12 -66,20 -117,23 -39,3 -104,4 -194,4 -99,0 -170,-8 -213,-25 -50,-20 -84,-54 -101,-100 -10,-30 -16,-67 -16,-111 0,-88 22,-152 66,-191 47,-43 123,-67 226,-71 60,-3 137,-4 231,-4 67,0 116,6 148,17 21,8 40,22 59,42l13 0 0 -40c0,-51 -7,-85 -22,-100 -16,-18 -45,-29 -87,-33 -17,-1 -44,-2 -82,-2 -114,0 -182,5 -204,16 -18,8 -30,28 -34,60zm192 203c-96,0 -156,5 -179,17 -28,13 -42,34 -42,63 0,34 18,56 54,66 28,7 76,11 144,11 88,0 151,-4 188,-13 45,-10 67,-35 67,-73 0,-30 -16,-51 -46,-62 -17,-6 -79,-9 -186,-9zm986 -174l677 0 0 217 -679 0 2 -217zm1875 188l291 0c-3,58 -8,104 -18,137 -10,37 -28,69 -56,97 -27,28 -59,48 -97,60 -48,15 -102,24 -160,27 -64,3 -133,4 -208,4 -140,0 -244,-8 -311,-26 -79,-21 -132,-61 -158,-120 -23,-51 -35,-138 -35,-261 0,-113 12,-195 35,-246 27,-61 79,-102 155,-122 68,-18 179,-27 331,-27 156,0 271,11 345,32 75,21 125,62 150,124 16,40 25,98 27,174l-290 0c-4,-34 -14,-59 -32,-74 -32,-28 -100,-41 -201,-41 -84,0 -143,7 -177,23 -22,11 -37,30 -46,57 -8,26 -12,63 -12,111 0,57 7,97 20,120 14,26 46,44 95,53 33,6 74,9 124,9 103,0 169,-13 198,-39 15,-15 26,-39 30,-72zm395 -456l267 0 0 115 16 0c21,-39 47,-68 78,-87 49,-31 122,-47 216,-47 126,0 211,28 256,85 35,45 53,115 53,210 0,13 -1,34 -3,62l-268 0c0,-44 -4,-75 -14,-93 -18,-33 -64,-50 -136,-50 -67,0 -115,18 -144,55 -18,23 -29,59 -33,107 -2,18 -3,48 -3,89l0 316 -285 0 0 -762zm1497 -19c146,0 256,8 330,24 79,16 135,56 167,118 18,35 28,71 31,110 3,36 5,81 5,133 0,103 -5,175 -15,214 -21,87 -73,143 -155,171 -63,20 -185,30 -368,30 -162,0 -277,-8 -346,-24 -83,-19 -139,-65 -166,-136 -12,-33 -20,-69 -23,-105 -3,-45 -4,-95 -4,-150 0,-96 6,-163 18,-200 26,-80 80,-131 162,-156 66,-19 188,-29 364,-29zm-6 214c-92,0 -154,7 -188,22 -26,12 -43,33 -53,62 -8,24 -12,61 -12,109 0,53 5,91 15,112 14,28 46,48 98,58 34,6 82,9 143,9 100,0 166,-9 198,-29 22,-13 37,-33 44,-60 6,-22 9,-55 9,-100 0,-58 -6,-98 -20,-121 -14,-26 -47,-44 -98,-52 -35,-7 -81,-10 -136,-10zm623 325l290 0c2,25 12,43 29,55 30,21 99,31 207,31 107,0 175,-7 203,-19 25,-11 38,-28 38,-52 0,-27 -16,-44 -48,-53 -15,-4 -96,-7 -243,-9 -138,0 -222,-2 -254,-7 -90,-12 -150,-41 -182,-87 -23,-35 -35,-81 -35,-138 0,-114 41,-187 124,-221 63,-26 196,-39 402,-39 143,0 248,7 315,20 37,8 68,22 95,42 26,20 44,44 54,72 8,24 14,58 17,101l-290 0c-5,-19 -12,-32 -20,-37 -23,-15 -83,-23 -179,-23 -99,0 -164,6 -196,17 -25,8 -37,24 -37,46 0,31 23,48 68,51 36,2 166,5 389,6 107,1 185,19 232,54 49,36 73,97 73,184 0,66 -13,119 -38,157 -17,25 -40,45 -69,60 -30,14 -70,25 -121,33 -72,11 -177,17 -316,17 -150,0 -259,-7 -326,-21 -43,-9 -79,-27 -109,-52 -29,-25 -50,-56 -61,-93 -7,-26 -11,-57 -12,-95zm1132 0l290 0c3,25 12,43 30,55 30,21 99,31 206,31 108,0 175,-7 203,-19 26,-11 38,-28 38,-52 0,-27 -16,-44 -48,-53 -14,-4 -95,-7 -243,-9 -137,0 -222,-2 -254,-7 -89,-12 -150,-41 -181,-87 -24,-35 -36,-81 -36,-138 0,-114 42,-187 125,-221 62,-26 196,-39 401,-39 143,0 248,7 316,20 36,8 68,22 94,42 27,20 45,44 54,72 9,24 14,58 18,101l-291 0c-5,-19 -11,-32 -19,-37 -24,-15 -84,-23 -180,-23 -98,0 -164,6 -195,17 -25,8 -38,24 -38,46 0,31 23,48 69,51 36,2 165,5 389,6 107,1 184,19 232,54 48,36 72,97 72,184 0,66 -12,119 -38,157 -16,25 -39,45 -69,60 -29,14 -69,25 -121,33 -72,11 -177,17 -315,17 -151,0 -260,-7 -327,-21 -42,-9 -78,-27 -108,-52 -30,-25 -50,-56 -61,-93 -7,-26 -12,-57 -13,-95z"/>
   </g>
  </g>
 </g>
</svg>
