<?xml version="1.0" encoding="UTF-8"?>
<!DOCTYPE svg PUBLIC "-//W3C//DTD SVG 1.1//EN" "http://www.w3.org/Graphics/SVG/1.1/DTD/svg11.dtd">
<!-- Creator: CorelDRAW X8 -->
<svg xmlns="http://www.w3.org/2000/svg" xml:space="preserve" width="210mm" height="297mm" version="1.1"
    style="shape-rendering:geometricPrecision; text-rendering:geometricPrecision; image-rendering:optimizeQuality; fill-rule:evenodd; clip-rule:evenodd"
    viewBox="0 0 103.99835 74.620003" xmlns:xlink="http://www.w3.org/1999/xlink">
    <defs>
        <style type="text/css">
            <![CDATA[
            .fil0 {
                fill: #2B2A29
            }
            ]]>
        </style>
    </defs>
    <g id="Warstwa_x0020_1">
        <metadata id="CorelCorpID_0Corel-Layer" />
        <path class="fil0"
            d="M5690 13144l1226 0c619,-1203 1873,-2025 3318,-2025 1446,0 2699,822 3319,2025l1757 0c317,0 492,209 326,504l-1423 2518c-161,286 -298,390 -589,390l-71 0c-620,1203 -1873,2025 -3319,2025 -1445,0 -2699,-822 -3318,-2025l-1226 0c-214,0 -390,-175 -390,-390l0 -2632c0,-215 176,-390 390,-390zm4698 586l0 521 0 0 0 800 -1176 0 0 -89 884 -605 0 -627 -165 0 -1331 967 0 858 1788 0 0 417 649 0 0 -417 330 0 291 -504 -621 0 0 -1321 -649 0zm2735 -486l-1855 3214 -240 0 1852 -3214 243 0zm-100 486l1212 0 0 519 -952 1723 -862 0 948 -1677 -672 0 326 -565zm-1228 0l636 0 -326 565 -307 0 -3 0 0 -565zm-4933 837l-662 0c0,-181 7,-319 22,-413 17,-117 61,-207 127,-272 66,-64 162,-109 286,-131 173,-32 480,-48 921,-48 418,0 678,5 779,14 169,16 291,55 368,116 76,61 124,145 142,249 13,70 20,149 23,237l-417 302 0 488c-99,23 -221,39 -365,48 -599,36 -941,62 -1026,72 -95,11 -157,42 -182,95 -10,22 -14,67 -18,134l1591 0 0 246 456 0 0 268 -2674 0c-4,-90 -5,-166 -5,-228 0,-277 8,-470 24,-580 32,-211 154,-343 363,-395 107,-26 221,-45 342,-54l468 -37c340,-26 532,-42 577,-47 105,-11 172,-35 201,-73 18,-23 28,-69 28,-139 0,-78 -11,-130 -33,-156 -27,-34 -88,-55 -181,-63 -54,-4 -189,-6 -406,-6 -302,0 -507,8 -613,23 -62,9 -101,32 -115,68 -13,35 -20,129 -21,282zm5573 2160l-313 -252c-472,548 -1155,862 -1881,861 -880,-1 -1649,-452 -2090,-1137l-466 0c482,916 1443,1537 2556,1539 848,1 1645,-368 2194,-1011zm-4276 -3236c362,-558 946,-969 1656,-1095 466,-83 940,-32 1378,149l77 32 -178 395 1309 -105 -790 -1049 -176 392 -72 -30c-514,-215 -1069,-278 -1618,-180 -908,162 -1641,725 -2044,1476 153,0 305,4 458,15z" />
    </g>
</svg>