<?xml version="1.0" encoding="UTF-8"?>
<!DOCTYPE svg PUBLIC "-//W3C//DTD SVG 1.1//EN" "http://www.w3.org/Graphics/SVG/1.1/DTD/svg11.dtd">
<!-- Creator: CorelDRAW X8 -->
<svg xmlns="http://www.w3.org/2000/svg" xml:space="preserve" width="210mm" height="297mm" version="1.1"
   style="shape-rendering:geometricPrecision; text-rendering:geometricPrecision; image-rendering:optimizeQuality; fill-rule:evenodd; clip-rule:evenodd"
   viewBox="0 0 21000 29700" xmlns:xlink="http://www.w3.org/1999/xlink">
   <defs>
      <style type="text/css">
         <![CDATA[
         .str0 {
            stroke: #EBECEC;
            stroke-width: 7.62
         }

         .str1 {
            stroke: #2B2A29;
            stroke-width: 7.62
         }

         .fil1 {
            fill: #FEFEFE
         }

         .fil2 {
            fill: #2B2A29
         }

         .fil3 {
            fill: #E31E24
         }

         .fil5 {
            fill: #952825
         }

         .fil4 {
            fill: url(#id1)
         }

         .fil0 {
            fill: url(#id2)
         }
         ]]>
      </style>
      <clipPath id="id0">
         <path d="M7899 4367l5020 0 0 3975 -5020 0 0 -3975z" />
      </clipPath>
      <linearGradient id="id1" gradientUnits="userSpaceOnUse" x1="9508.83" y1="20890" x2="11278.5" y2="27210.3">
         <stop offset="0" style="stop-opacity:1; stop-color:#EBECEC" />
         <stop offset="0.0784314" style="stop-opacity:1; stop-color:#FEFEFE" />
         <stop offset="0.160784" style="stop-opacity:1; stop-color:#EBECEC" />
         <stop offset="0.25098" style="stop-opacity:1; stop-color:#FEFEFE" />
         <stop offset="0.321569" style="stop-opacity:1; stop-color:#EBECEC" />
         <stop offset="0.380392" style="stop-opacity:1; stop-color:#B0B0B1" />
         <stop offset="0.431373" style="stop-opacity:1; stop-color:#FEFEFE" />
         <stop offset="0.501961" style="stop-opacity:1; stop-color:#EBECEC" />
         <stop offset="0.580392" style="stop-opacity:1; stop-color:whitesmoke" />
         <stop offset="0.678431" style="stop-opacity:1; stop-color:#EBECEC" />
         <stop offset="0.741176" style="stop-opacity:1; stop-color:#FEFEFE" />
         <stop offset="0.811765" style="stop-opacity:1; stop-color:#EBECEC" />
         <stop offset="0.901961" style="stop-opacity:1; stop-color:#FEFEFE" />
         <stop offset="1" style="stop-opacity:1; stop-color:#EBECEC" />
      </linearGradient>
      <linearGradient id="id2" gradientUnits="userSpaceOnUse" xlink:href="#id1" x1="9508.83" y1="8055.44" x2="11278.5"
         y2="14375.8">
      </linearGradient>
   </defs>
   <g id="Warstwa_x0020_1">
      <metadata id="CorelCorpID_0Corel-Layer" />
      <g id="_2639129046464">
         <g>
            <path class="fil4 str0"
               d="M13779 24122l-4 -18 -4 -18 -2 -18 -1 -18 -1 -17 0 -459 -657 657 0 705 -1 19 -1 20 -3 20 -3 19 -5 19 -5 18 -7 18 -7 17 -8 16 -9 16 -10 15 -10 15 -11 14 -11 13 -12 13 -13 12 -13 11 -13 11 -14 10 -15 9 -14 8 -15 8 -15 7 -16 6 -15 6 -16 5 -16 4 -16 4 -16 2 -17 2 -16 1 -16 1 -149 0 -15 0 -16 -2 -17 -1 -16 -3 -16 -3 -16 -4 -15 -5 -16 -5 -15 -6 -16 -7 -15 -7 -14 -9 -15 -9 -14 -9 -14 -11 -13 -11 -13 -12 -12 -12 -12 -13 -11 -14 -11 -15 -9 -16 -10 -16 -8 -17 -7 -17 -7 -18 -6 -19 -4 -19 -4 -19 -2 -20 -2 -21 -1 -19 0 -705 -661 -661 0 463 0 17 -1 19 -3 18 -3 18 -4 17 -5 17 -6 17 -6 17 -7 16 -8 15 -9 15 -10 15 -10 14 -10 14 -12 13 -12 12 -12 12 -13 12 -14 10 -14 10 -15 10 -15 9 -15 8 -16 7 -17 6 -17 6 -17 5 -17 4 -18 3 -18 3 -19 1 -17 0 -166 0 479 471 13 14 13 15 12 17 11 16 9 18 8 17 6 18 5 19 3 18 3 19 0 18 0 19 -3 18 -3 18 -5 17 -6 18 -7 16 -9 16 -10 15 -11 15 -12 13 -13 13 -15 12 -15 11 -16 9 -16 9 -18 7 -18 6 -19 5 -19 3 -20 2 -18 1 -491 0 -295 -291 -622 -612 -462 0 0 543 0 17 -2 18 -2 18 -3 18 -4 18 -5 17 -6 17 -6 16 -8 16 -8 16 -8 15 -10 15 -10 14 -11 13 -11 14 -12 12 -12 12 -14 11 -13 11 -14 10 -15 9 -15 9 -16 8 -16 8 -16 6 -17 6 -17 5 -18 4 -17 3 -18 2 -19 2 -17 0 -73 0 -4 0 -4 0 -5 0 -4 0 -4 -1 -4 0 -4 0 -260 0 -19 -1 -19 -1 -19 -3 -19 -4 -18 -5 -17 -5 -17 -7 -16 -7 -16 -8 -15 -9 -14 -9 -14 -10 -13 -10 -12 -10 -12 -11 -12 -11 -10 -12 -11 -11 -10 -12 -9 -11 -9 -12 -9 -12 -8 -11 -8 -12 -7 -12 -7 -11 -7 -11 -7 -11 -6 -11 -6 -11 -6 -10 -5 -9 -715 -1270 -491 877 599 0 35 2 35 6 34 9 32 14 29 17 27 20 24 22 21 24 18 26 15 27 12 28 10 29 8 29 5 29 3 30 1 30 -1 29 -3 30 -5 29 -8 29 -10 28 -12 28 -15 27 -17 25 -20 24 -22 23 -26 19 -28 18 -31 13 -32 11 -35 6 -33 2 -1534 0 -14 -1 -16 -1 -16 -2 -16 -4 -16 -4 -15 -6 -16 -6 -15 -8 -14 -9 -15 -10 -14 -11 -13 -12 -12 -14 -12 -15 -10 -16 -9 -18 -8 -18 -6 -19 -4 -20 -3 -21 -1 -21 0 -21 2 -21 4 -22 5 -22 6 -22 8 -23 10 -22 11 -23 12 -23 14 -24 14 -21 5 -9 247 -413 -1423 0 0 543 0 17 -2 18 -2 18 -3 18 -4 18 -5 17 -6 17 -7 16 -7 16 -8 16 -9 15 -9 15 -10 14 -11 13 -11 14 -12 12 -13 12 -13 11 -13 11 -14 10 -15 9 -15 9 -16 8 -16 8 -16 6 -17 6 -17 5 -18 4 -18 3 -18 2 -18 2 -17 0 -74 0 -17 0 -18 -2 -19 -2 -17 -3 -18 -4 -17 -5 -17 -6 -16 -6 -16 -8 -16 -8 -15 -8 -15 -10 -14 -10 -13 -11 -13 -11 -13 -12 -12 -13 -11 -13 -11 -13 -10 -14 -10 -15 -8 -15 -8 -16 -8 -16 -6 -16 -6 -17 -5 -17 -4 -18 -3 -18 -2 -18 -2 -18 0 -17 0 -1770 0 -1 0 -1 0 -1 0 -1 0 -3 0 -1 0 -3 0 0 0 -3 0 -1 0 0 0 -3 0 -2 1 -1 0 -1 0 -1 0 -1 0 -1 0 -3 0 -1 0 -1 0 -1 0 -1 0 -1 1 -1 0 -1 0 -2 1 -9 1 -9 2 -8 1 -9 2 -9 2 -9 3 -8 0 -2 1 -3 2 -9 3 -6 0 -1 0 -1 1 -1 0 0 1 -3 1 -1 0 -1 0 -1 1 -1 0 -1 0 0 1 -3 1 -2 0 -1 0 0 1 -2 0 -1 0 0 2 -3 0 -1 0 0 1 -1 0 -2 1 -1 0 0 0 -1 1 -2 1 -1 0 -1 0 0 1 -1 0 -2 1 0 0 -1 1 -2 1 -1 0 0 0 -1 1 -1 0 -1 1 -1 0 -1 1 -1 0 -2 1 0 0 -1 1 -1 0 -1 1 -1 0 0 1 -2 1 -1 0 -1 0 0 1 -1 2 -5 1 -1 0 0 0 -1 1 -1 1 -2 2 -2 0 -2 2 -2 1 -1 0 0 0 -1 1 -2 7 -9 7 -10 7 -10 7 -9 8 -9 8 -8 9 -9 8 -8 2 -1 0 -1 1 0 1 -1 1 -1 0 0 1 -1 1 -1 1 -1 1 0 0 -1 2 -1 1 -1 0 0 0 0 1 -1 3 -2 0 0 1 -1 1 -1 3 -2 1 -1 0 0 1 -1 0 0 5 -3 0 -1 1 0 1 -1 0 0 3 -2 1 -1 4 -3 1 0 1 -1 0 0 1 -1 2 -1 0 0 1 -1 1 -1 1 0 1 -1 0 0 2 -1 1 -1 1 0 0 -1 1 0 1 -1 1 -1 2 -1 2 -1 0 0 1 -1 2 -1 1 0 0 0 2 -1 10 -6 10 -5 10 -5 11 -4 11 -5 11 -4 11 -3 11 -4 11 -2 12 -3 11 -2 12 -2 12 -1 12 -1 12 -1 12 0 72 0 1 0 2087 0 17 0 19 2 18 2 17 3 18 4 17 5 17 6 16 6 16 8 16 8 15 8 15 10 14 10 14 11 13 11 12 12 12 12 11 14 11 13 10 14 10 15 8 15 8 16 8 16 6 16 6 17 5 17 4 18 3 17 2 19 2 18 0 17 0 119 146 -244 0 -1 7 -11 8 -12 8 -12 9 -12 9 -11 9 -11 9 -11 10 -10 10 -11 11 -9 10 -10 11 -9 11 -9 12 -9 11 -8 12 -8 12 -7 13 -8 12 -6 13 -7 13 -6 13 -5 13 -6 14 -5 14 -4 13 -4 14 -3 15 -3 14 -3 14 -2 15 -1 14 -1 14 0 242 0 14 0 15 1 15 2 15 2 15 2 14 3 15 4 14 4 14 5 14 5 14 5 13 6 13 7 13 7 13 7 13 8 12 8 12 8 12 9 12 9 11 9 11 10 11 10 11 10 10 11 10 11 9 11 9 12 9 12 9 12 8 13 7 12 516 907 0 -781 0 -1 0 -1 0 -1 0 -1 0 -3 0 -1 0 -3 0 0 0 -1 0 -2 0 -1 0 0 1 -4 0 -1 0 -1 0 -1 0 -1 0 -1 0 -1 0 -3 0 -1 0 -1 0 -1 0 -1 1 -1 0 -1 0 -1 0 -2 1 -9 1 -9 2 -8 1 -9 2 -9 2 -9 3 -8 0 -2 1 -3 3 -9 2 -6 0 -1 0 0 2 -5 1 -1 0 -1 0 -1 1 -1 0 -1 0 -1 1 -2 1 -2 0 -1 1 0 0 -2 0 -1 1 0 1 -2 0 -2 1 -1 0 0 0 -2 1 -1 0 0 0 -1 1 -1 1 -2 0 -1 1 0 0 -1 1 -2 0 0 0 -1 1 -2 1 -1 0 0 0 -1 1 -1 0 -1 1 -1 0 -1 1 -1 0 -1 1 -1 0 -1 1 -1 0 -1 1 -1 0 -1 1 -1 1 -1 0 -1 0 0 1 -1 2 -5 1 -1 0 0 1 -1 1 -2 0 -1 0 0 2 -2 0 -1 1 -1 1 -2 1 -1 0 0 0 -1 1 -2 7 -9 7 -10 7 -10 8 -9 7 -9 9 -8 8 -9 9 -8 1 -1 0 -1 1 0 1 -1 1 -1 0 0 1 -1 1 -1 1 -1 1 0 0 -1 2 -1 1 -1 0 0 0 0 2 -1 1 -2 1 0 0 0 1 -1 4 -3 1 -1 1 0 0 -1 0 0 3 -2 1 -1 3 -2 0 0 1 0 2 -2 2 -1 1 -1 0 -1 1 0 1 -1 1 0 1 -1 0 0 1 -1 3 -2 0 0 1 -1 1 0 1 -1 0 0 2 -1 2 -2 0 0 1 0 2 -1 1 -1 1 -1 3 -1 0 0 1 -1 1 -1 1 0 0 0 2 -1 10 -6 10 -5 10 -5 11 -4 11 -5 11 -4 11 -3 11 -4 11 -2 12 -3 12 -2 11 -2 12 -1 12 -1 12 -1 12 0 72 0 1 0 1682 0 0 0 1229 0 632 629 629 -629 806 0 2 0 3 0 2 -1 3 0 3 0 3 0 2 0 2160 0 18 1 18 1 18 2 18 4 17 4 17 5 17 5 17 7 16 7 15 8 15 9 15 9 14 10 14 11 13 11 12 12 12 13 12 13 10 14 11 14 9 14 9 16 8 15 7 16 6 17 6 16 5 18 4 17 3 18 3 18 1 18 1 18 0 332 -2134 0 0 209 1773 0 18 0 18 2 18 2 18 3 17 4 17 5 17 6 17 7 16 7 15 8 15 9 15 9 14 10 14 11 13 11 12 12 12 13 12 13 10 13 11 14 9 15 9 15 8 16 7 16 6 16 6 17 5 17 4 18 3 18 3 18 1 18 1 17 0 868 -1 18 -1 18 -3 18 -3 18 -4 17 -5 17 -6 17 -6 17 -7 16 -8 15 -9 15 -9 15 -11 14 -10 14 -12 13 -12 12 -12 12 -13 12 -14 10 -14 11 -15 9 -15 9 -15 8 -16 7 -17 6 -17 6 -17 5 -17 4 -18 3 -18 3 -19 1 -17 1 -2161 0 -17 -1 -18 -1 -18 -3 -18 -3 -17 -4 -18 -5 -17 -6 -16 -6 -16 -7 -16 -8 -15 -9 -14 -9 -14 -11 -14 -10 -13 -12 -13 -12 -12 -12 -11 -13 -11 -14 -10 -14 -9 -15 -9 -15 -8 -15 -7 -16 -7 -17 -5 -17 -5 -17 -4 -17 -4 -18 -2 -18 -1 -18 -1 -18 0 -319 2105 0 0 -222 -1745 0 -17 -1 -18 -1 -18 -2 -18 -3 -17 -5 -18 -4 -17 -6 -16 -7 -16 -7 -16 -8 -15 -9 -14 -9 -14 -10 -14 -11 -13 -11 -13 -12 -12 -13 -11 -13 -11 -13 -10 -15 -9 -14 -9 -15 -8 -16 -7 -16 -7 -16 -5 -17 -5 -17zm-7526 -474l0 -164 -1320 0 0 164 1320 0zm4560 0l0 -164 -1321 0 0 164 1321 0z" />
            <path class="fil1 str1"
               d="M7855 16278l5077 0c426,0 774,348 774,773l0 4221c0,425 -348,773 -774,773l-5077 0c-426,0 -774,-348 -774,-773l0 -4221c0,-425 348,-773 774,-773z" />
         </g>
         <path class="fil2"
            d="M15980 24717l0 -428 -1848 0 -14 0 -13 -1 -13 -2 -12 -2 -13 -3 -12 -4 -12 -4 -12 -4 -11 -6 -12 -5 -10 -7 -11 -6 -10 -8 -10 -7 -9 -9 -9 -8 -9 -9 -8 -10 -8 -9 -7 -11 -7 -10 -6 -11 -6 -11 -5 -12 -5 -11 -4 -12 -4 -13 -2 -12 -3 -13 -1 -13 -1 -13 -1 -14 0 -705 -863 863 0 748 -1 15 -1 14 -1 14 -3 14 -3 13 -4 13 -5 13 -5 12 -5 11 -7 12 -6 10 -8 11 -7 10 -9 9 -8 9 -9 9 -10 8 -9 7 -10 8 -11 6 -10 6 -11 6 -11 5 -11 5 -11 4 -12 3 -11 3 -12 3 -12 2 -11 1 -12 1 -12 0 -147 0 -12 0 -11 -1 -12 -1 -12 -2 -11 -2 -12 -3 -11 -4 -12 -3 -11 -5 -11 -5 -11 -5 -11 -6 -10 -7 -10 -7 -10 -7 -10 -8 -9 -8 -8 -9 -9 -10 -8 -10 -7 -10 -7 -11 -6 -11 -6 -12 -5 -12 -5 -13 -4 -13 -3 -14 -3 -14 -2 -14 -1 -15 -1 -16 0 -747 -867 -867 0 710 0 13 -1 14 -2 12 -2 13 -3 13 -3 12 -4 12 -5 12 -5 11 -6 12 -6 10 -7 11 -7 10 -8 10 -8 9 -9 9 -9 9 -9 8 -10 8 -10 7 -11 7 -11 6 -11 6 -11 5 -12 5 -12 4 -12 3 -13 3 -13 3 -13 1 -13 1 -13 1 -416 0 658 645 9 11 9 10 8 10 6 11 6 11 5 11 4 11 3 10 2 11 1 11 0 11 0 10 -1 11 -2 10 -3 10 -4 10 -4 9 -5 9 -5 9 -7 8 -7 8 -7 7 -8 7 -9 7 -10 5 -10 5 -10 5 -11 3 -12 3 -12 2 -13 2 -13 0 -448 0 -264 -262 -654 -641 -607 0 0 644 0 13 -1 13 -2 13 -2 13 -3 13 -3 12 -4 12 -5 12 -5 11 -6 11 -6 11 -7 11 -7 10 -8 10 -8 9 -9 9 -9 9 -9 8 -10 8 -10 7 -11 7 -11 6 -11 6 -11 5 -12 5 -12 4 -13 3 -12 3 -13 2 -13 2 -13 1 -13 0 -72 0 -3 0 -3 0 -3 0 -3 0 -3 0 -3 0 -3 0 -3 -1 -264 0 -14 0 -14 -1 -13 -2 -13 -3 -12 -3 -12 -4 -12 -5 -11 -5 -11 -5 -11 -6 -10 -7 -10 -7 -10 -8 -10 -8 -9 -8 -9 -9 -8 -9 -9 -9 -8 -9 -7 -10 -8 -10 -7 -10 -8 -10 -6 -10 -7 -10 -6 -11 -6 -10 -6 -10 -6 -10 -6 -9 -5 -10 -5 -10 -806 -1431 -667 1190 773 0 26 2 24 4 22 6 21 9 19 11 17 13 15 14 14 16 12 18 11 18 9 20 7 21 5 21 4 22 3 22 0 23 0 22 -3 23 -4 21 -6 22 -7 21 -8 19 -11 19 -11 18 -14 16 -15 14 -16 13 -18 11 -19 8 -20 7 -23 4 -23 1 -1532 0 -10 0 -10 -1 -9 -1 -10 -2 -10 -3 -9 -3 -9 -4 -9 -5 -9 -5 -8 -6 -8 -6 -8 -7 -6 -8 -7 -8 -5 -9 -5 -9 -5 -11 -3 -10 -3 -12 -1 -12 -1 -13 0 -14 2 -14 2 -15 4 -15 4 -17 7 -17 7 -18 9 -18 10 -19 12 -20 14 -21 6 -11 340 -568 -1708 0 0 644 -1 13 -1 13 -1 13 -2 13 -3 13 -4 12 -4 12 -5 12 -5 11 -6 11 -6 11 -7 11 -7 10 -8 10 -8 9 -8 9 -9 9 -10 8 -10 8 -10 7 -10 7 -11 6 -11 6 -12 5 -12 5 -12 4 -12 3 -13 3 -12 2 -13 2 -13 1 -14 0 -71 0 -13 0 -13 -1 -13 -2 -13 -2 -13 -3 -12 -3 -12 -4 -12 -5 -11 -5 -11 -6 -11 -6 -11 -7 -10 -7 -10 -8 -9 -8 -9 -9 -9 -9 -8 -9 -8 -10 -7 -10 -7 -11 -6 -11 -6 -11 -5 -11 -5 -12 -4 -12 -3 -12 -3 -13 -2 -13 -2 -13 -1 -13 0 -13 0 -1771 0 -1 0 -1 0 -1 0 -2 0 -1 0 -4 0 -1 0 0 0 -2 0 -1 0 -1 0 -1 0 0 0 -2 0 -2 0 0 1 -2 0 0 0 -1 0 -1 0 -2 1 -7 1 -6 1 -6 1 -7 1 -6 2 -6 1 -7 2 -6 1 -2 2 -5 0 -1 0 0 0 -1 1 -2 0 0 0 -1 1 -1 0 -1 0 0 0 -1 1 0 1 -3 0 -1 1 -1 0 -1 0 0 0 -1 1 -1 0 -1 0 0 1 -1 1 -3 0 0 1 -1 0 -1 0 -1 1 0 0 -2 1 -1 0 -1 1 -1 0 0 0 -1 1 -1 0 -1 2 -3 0 -1 1 0 0 -1 1 -3 0 0 1 -1 0 0 1 -1 0 -1 0 0 1 -1 0 -1 1 0 0 -1 0 -1 1 0 0 -1 1 -1 0 0 0 -1 2 -3 0 0 1 -1 1 -1 4 -7 5 -7 6 -7 5 -7 6 -6 6 -7 6 -6 7 -6 0 -1 0 0 1 -1 1 0 1 -1 0 0 0 -1 3 -2 0 0 1 -1 1 -1 1 0 2 -2 0 0 3 -2 1 -1 0 0 1 -1 2 -2 1 0 0 0 1 -1 1 0 1 -2 1 0 1 -1 1 0 0 -1 1 0 0 0 1 -1 1 0 0 -1 1 0 1 -1 1 0 1 -1 2 -1 0 -1 1 0 0 0 1 -1 1 0 2 -2 0 0 1 0 1 -1 1 0 1 -1 0 0 1 -1 7 -4 8 -4 7 -3 8 -3 7 -3 8 -3 8 -3 8 -2 9 -2 8 -2 8 -2 9 -1 8 -1 9 -1 8 0 9 0 72 0 0 0 2089 0 14 0 13 1 13 2 13 2 12 3 12 4 12 4 12 4 12 5 11 6 11 6 10 7 10 8 10 7 10 8 9 9 8 9 8 9 8 10 7 10 7 11 6 11 6 11 5 12 5 11 4 12 4 13 3 12 2 13 2 13 1 13 0 13 0 489 336 -561 0 -1 1 -2 6 -9 6 -10 6 -9 7 -9 7 -9 7 -9 8 -8 8 -9 8 -8 8 -8 8 -7 9 -7 9 -7 9 -7 9 -7 9 -6 10 -6 10 -6 10 -5 9 -5 11 -5 10 -4 10 -4 10 -4 11 -3 10 -3 11 -3 11 -2 10 -2 11 -1 11 -1 10 -1 11 0 240 0 11 0 11 1 11 1 11 1 11 2 11 3 11 2 11 4 11 3 11 4 10 4 11 5 10 5 10 5 10 6 10 6 10 6 10 7 9 7 9 7 9 8 9 7 9 8 8 9 8 8 8 9 7 9 8 9 6 9 7 10 6 10 6 10 708 1244 0 -1170 0 -1 0 -1 0 0 0 -1 0 -4 0 -3 0 0 0 -1 0 -1 0 -1 0 -1 1 -1 0 -1 0 0 0 -2 0 -2 0 -2 0 0 0 -1 0 -1 0 -2 1 -7 1 -6 1 -6 1 -7 2 -6 1 -6 2 -7 2 -6 0 -2 2 -4 0 0 0 -1 1 -1 0 -1 0 -1 1 -1 0 -1 0 -1 1 -1 0 0 0 -1 0 0 1 -2 0 0 0 -1 1 -1 0 -1 0 -1 1 0 0 -1 0 -1 1 -1 0 -2 1 0 0 -1 1 -1 0 -1 0 0 1 -2 0 0 1 -1 0 -2 1 -1 0 -1 1 -1 0 0 0 -1 1 -1 1 -2 0 0 0 -1 1 -1 0 0 0 -1 1 -1 1 -2 0 -1 1 0 0 -1 0 -1 2 -2 0 0 1 -1 0 -2 1 0 0 -1 0 0 1 -2 0 0 1 0 1 -2 0 0 1 -2 5 -7 5 -7 5 -7 6 -7 5 -6 6 -7 6 -6 7 -6 0 0 1 -1 1 -1 0 0 1 -1 0 0 1 -1 2 -2 1 0 2 -2 0 0 3 -2 0 0 2 -2 0 0 1 -1 1 0 0 -1 2 -1 1 -1 1 0 0 -1 1 0 3 -2 0 -1 1 0 1 -1 1 0 0 0 1 -1 0 0 1 -1 0 0 1 -1 1 0 0 0 1 -1 1 -1 1 0 1 -1 0 0 1 0 1 -1 0 0 2 -2 1 0 1 0 0 -1 1 0 2 -1 0 0 1 -1 7 -4 7 -4 8 -3 7 -3 8 -3 8 -3 8 -3 8 -2 8 -2 8 -2 9 -2 8 -1 9 -1 8 -1 9 0 9 0 71 0 1 0 1923 0 0 0 950 0 675 672 672 -672 768 0 2 0 2 0 4 -1 2 0 2 0 2 0 2 0 2161 0 13 1 14 1 13 1 12 3 13 2 12 4 12 4 12 5 11 5 12 6 10 6 11 7 10 7 10 8 9 8 9 8 9 10 8 9 8 10 7 10 7 10 6 11 6 12 5 11 5 12 4 12 3 12 3 13 3 12 1 13 1 13 1 14 0 229 -2137 0 0 414 1877 0 13 1 14 1 13 1 12 2 13 3 12 4 12 4 12 5 11 5 12 6 10 6 11 7 10 7 10 8 9 8 9 8 9 9 8 10 8 10 7 10 7 10 6 11 6 11 5 12 5 12 4 12 3 12 3 13 3 12 1 13 1 13 1 14 0 866 -1 14 -1 13 -1 13 -3 13 -3 12 -3 12 -4 12 -5 12 -5 12 -6 11 -6 11 -7 10 -7 10 -8 10 -8 10 -9 9 -9 8 -9 9 -10 7 -10 7 -11 7 -10 7 -12 5 -11 5 -12 5 -12 4 -12 4 -13 3 -12 2 -13 2 -14 1 -13 0 -2161 0 -14 0 -13 -1 -13 -2 -12 -2 -13 -3 -12 -4 -12 -4 -12 -5 -11 -5 -12 -5 -11 -7 -10 -7 -10 -7 -10 -8 -9 -8 -9 -8 -9 -9 -8 -10 -8 -10 -7 -10 -7 -10 -6 -11 -6 -11 -5 -12 -5 -12 -4 -12 -4 -12 -2 -12 -3 -13 -1 -13 -1 -13 -1 -14 0 -215 2108 0zm-6594 -1338l0 369 1432 0 9 -1 10 -1 9 -3 9 -3 8 -4 8 -5 8 -5 6 -7 7 -6 5 -8 5 -8 4 -8 3 -9 3 -9 1 -9 1 -10 0 -177 -1 -10 -1 -9 -3 -9 -3 -9 -4 -9 -5 -8 -5 -7 -7 -7 -6 -6 -8 -5 -8 -5 -8 -4 -9 -4 -9 -2 -10 -1 -9 -1 -1432 0zm-4565 0l0 369 1431 0 10 -1 9 -1 10 -3 8 -3 9 -4 8 -5 7 -5 7 -7 6 -6 6 -8 4 -8 5 -8 3 -9 2 -9 2 -9 0 -10 0 -177 0 -10 -2 -9 -2 -9 -3 -9 -5 -9 -4 -8 -6 -7 -6 -7 -7 -6 -7 -5 -8 -5 -9 -4 -8 -4 -10 -2 -9 -1 -10 -1 -1431 0z" />
         <path class="fil3"
            d="M7854 16202l5079 0c469,0 854,382 854,851l0 4217c0,469 -385,851 -854,851l-5079 0c-469,0 -854,-382 -854,-851l0 -4217c0,-469 385,-851 854,-851z" />
         <path class="fil5"
            d="M10410 17248c443,0 801,358 801,801 0,442 -358,801 -801,801 -442,0 -801,-359 -801,-801 0,-443 359,-801 801,-801zm1212 2316c159,0 288,128 288,287 0,159 -129,288 -288,288 -209,0 -232,-138 -419,-2l-394 267c-122,94 -113,271 20,380 217,177 491,291 793,291 676,0 1224,-548 1224,-1224 0,-675 -548,-1223 -1224,-1223 -501,0 -931,301 -1121,732 -42,95 -143,94 -186,-3 -190,-430 -620,-729 -1120,-729 -675,0 -1223,548 -1223,1223 0,676 548,1224 1223,1224 303,0 576,-114 793,-291 133,-109 142,-286 20,-380l-393 -267c-187,-136 -210,2 -420,2 -159,0 -287,-129 -287,-288 0,-159 128,-287 287,-287 70,0 131,28 183,65l834 589c144,101 252,97 368,15l859 -604c53,-37 114,-65 183,-65z" />
         <path class="fil1"
            d="M10395 17188c442,0 801,358 801,801 0,442 -359,801 -801,801 -443,0 -801,-359 -801,-801 0,-443 358,-801 801,-801zm1212 2316c159,0 288,128 288,287 0,159 -129,288 -288,288 -210,0 -232,-138 -419,-2l-394 267c-122,94 -113,271 20,380 217,177 490,291 793,291 676,0 1224,-548 1224,-1224 0,-675 -548,-1223 -1224,-1223 -501,0 -931,301 -1121,732 -42,95 -143,94 -186,-3 -190,-430 -620,-729 -1120,-729 -676,0 -1224,548 -1224,1223 0,676 548,1224 1224,1224 303,0 576,-114 793,-291 133,-109 142,-286 20,-380l-394 -267c-187,-136 -209,2 -419,2 -159,0 -288,-129 -288,-288 0,-159 129,-287 288,-287 70,0 130,28 183,65l834 589c143,101 251,97 367,15l860 -604c53,-37 113,-65 183,-65z" />
      </g>
   </g>
</svg>