<?xml version="1.0" encoding="UTF-8" standalone="no"?>
<!-- Created with Inkscape (http://www.inkscape.org/) -->

<svg
   width="1754.1875mm"
   height="1529.8209mm"
   viewBox="0 0 1754.1875 1529.8209"
   version="1.1"
   id="svg1"
   xml:space="preserve"
   xmlns:inkscape="http://www.inkscape.org/namespaces/inkscape"
   xmlns:sodipodi="http://sodipodi.sourceforge.net/DTD/sodipodi-0.dtd"
   xmlns="http://www.w3.org/2000/svg"
   xmlns:svg="http://www.w3.org/2000/svg"><sodipodi:namedview
     id="namedview1"
     pagecolor="#505050"
     bordercolor="#eeeeee"
     borderopacity="1"
     inkscape:showpageshadow="0"
     inkscape:pageopacity="0"
     inkscape:pagecheckerboard="0"
     inkscape:deskcolor="#d1d1d1"
     inkscape:document-units="mm" /><defs
     id="defs1"><style
       type="text/css"
       id="style1">&#10;            <![CDATA[
            .str2 {
                stroke: #2B2A29;
                stroke-width: 7.62
            }

            .str1 {
                stroke: #EBECEC;
                stroke-width: 7.62
            }

            .str0 {
                stroke: #FEFEFE;
                stroke-width: 151.45;
                stroke-linecap: round;
                stroke-linejoin: round
            }

            .fil0 {
                fill: none;
                fill-rule: nonzero
            }

            .fil4 {
                fill: #2B2A29
            }

            .fil6 {
                fill: #952825
            }

            .fil5 {
                fill: #E31E24
            }

            .fil3 {
                fill: #FEFEFE
            }

            .fil1 {
                fill: #2B2A29;
                fill-rule: nonzero
            }

            .fil2 {
                fill: #FEFEFE
            }
            ]]>&#10;        </style></defs><g
     inkscape:label="Warstwa 1"
     inkscape:groupmode="layer"
     id="layer1"
     transform="translate(934.27224,2658.6735)"><g
       style="image-rendering:optimizeQuality;shape-rendering:geometricPrecision;text-rendering:geometricPrecision"
       id="g2"
       transform="matrix(0.26458333,0,0,0.26458333,-2892.3394,-4317.5802)"><g
         id="Warstwa_x0020_1"
         inkscape:label="Warstwa 1"
         inkscape:groupmode="layer">&#10;        <metadata
   id="CorelCorpID_0Corel-Layer" />&#10;        <g
   id="_2600714096112">&#10;            &#10;            <g
   id="_2639129046464">&#10;                <g
   id="g3"
   transform="translate(205.56905,-3466.116)">&#10;                    &#10;                    <path
   class="fil3 str2"
   d="m 8030,9810 h 4960 c 416,0 756,340 756,755 v 4124 c 0,415 -340,755 -756,755 H 8030 c -416,0 -756,-340 -756,-755 v -4124 c 0,-415 340,-755 756,-755 z"
   id="path3" />&#10;                </g>&#10;                &#10;                <path
   class="fil5"
   d="m 8234.569,6269.884 h 4962 c 458,0 834,373 834,831 v 4120 c 0,458 -376,831 -834,831 h -4962 c -458,0 -834,-373 -834,-831 v -4120 c 0,-458 376,-831 834,-831 z"
   id="path5" />&#10;                <path
   class="fil6"
   d="m 10731.569,7291.884 c 433,0 783,350 783,782 0,432 -350,783 -783,783 -432,0 -782,-351 -782,-783 0,-432 350,-782 782,-782 z m 1184,2262 c 155,0 282,125 282,281 0,155 -127,281 -282,281 -204,0 -226,-135 -409,-2 l -385,261 c -119,92 -110,265 19,371 212,173 480,284 775,284 661,0 1196,-535 1196,-1195 0,-660 -535,-1195 -1196,-1195 -489,0 -909,294 -1095,715 -41,93 -140,92 -182,-3 -185,-420 -605,-712 -1094,-712 -659,0 -1195,535 -1195,1195 0,660 536,1195 1195,1195 296,0 563,-111 775,-284 130,-106 139,-279 19,-371 l -383,-261 c -183,-133 -206,2 -411,2 -155,0 -280,-126 -280,-281 0,-156 125,-281 280,-281 69,0 128,28 179,64 l 815,575 c 140,99 246,95 359,15 l 839,-590 c 52,-36 112,-64 179,-64 z"
   id="path6" />&#10;                <path
   class="fil3"
   d="m 10717.569,7232.884 c 431,0 782,350 782,783 0,431 -351,782 -782,782 -433,0 -783,-351 -783,-782 0,-433 350,-783 783,-783 z m 1184,2263 c 155,0 281,125 281,280 0,155 -126,281 -281,281 -206,0 -227,-134 -410,-2 l -385,261 c -119,92 -110,265 20,371 212,173 479,285 775,285 660,0 1195,-536 1195,-1196 0,-659 -535,-1195 -1195,-1195 -490,0 -910,294 -1096,715 -41,93 -139,92 -181,-3 -186,-420 -606,-712 -1094,-712 -661,0 -1196,536 -1196,1195 0,660 535,1196 1196,1196 296,0 562,-112 774,-285 130,-106 139,-279 20,-371 l -385,-261 c -183,-132 -204,2 -409,2 -156,0 -282,-126 -282,-281 0,-155 126,-280 282,-280 68,0 127,27 178,63 l 815,576 c 140,98 245,94 359,14 l 840,-590 c 52,-36 110,-63 179,-63 z"
   id="path7" />&#10;            </g>&#10;        </g>&#10;    </g></g></g></svg>
