<?xml version="1.0" standalone="no"?>
<!DOCTYPE svg PUBLIC "-//W3C//DTD SVG 20010904//EN"
 "http://www.w3.org/TR/2001/REC-SVG-20010904/DTD/svg10.dtd">
<svg version="1.0" xmlns="http://www.w3.org/2000/svg"
 width="472.000000pt" height="381.000000pt" viewBox="0 0 472.000000 381.000000"
 preserveAspectRatio="xMidYMid meet">

<g transform="translate(0.000000,381.000000) scale(0.100000,-0.100000)"
fill="#000000" stroke="none">
<path d="M2012 3194 c-30 -21 -87 -137 -108 -217 l-16 -65 -60 44 c-68 50
-109 56 -151 23 -73 -56 -71 -309 3 -463 32 -69 114 -166 174 -207 l35 -24
-64 -60 c-56 -52 -65 -65 -65 -95 1 -19 6 -45 13 -56 17 -31 244 -213 274
-220 53 -14 85 7 138 88 l50 77 81 1 c251 1 434 111 547 329 43 82 82 205 95
299 9 63 16 79 56 130 25 32 46 68 46 80 0 25 -101 104 -194 152 -135 69 -272
22 -371 -127 -22 -32 -43 -62 -47 -67 -19 -24 -179 151 -260 287 -22 37 -52
76 -66 87 -30 24 -79 26 -110 4z m80 -126 c27 -58 139 -201 214 -275 70 -69
72 -73 45 -73 -51 0 -179 38 -271 81 -89 42 -90 42 -90 79 0 63 56 220 78 220
5 0 15 -15 24 -32z m721 -142 c18 -8 53 -29 79 -48 l47 -34 -33 -42 c-26 -32
-35 -56 -41 -99 -18 -152 -71 -297 -144 -393 -103 -136 -236 -194 -434 -189
-51 1 -98 0 -104 -4 -6 -4 -29 -37 -52 -74 -22 -38 -45 -74 -50 -82 -6 -10
-34 8 -115 74 -58 47 -106 88 -106 89 0 1 39 35 86 75 107 92 109 109 19 159
-166 92 -258 268 -240 460 4 39 11 72 16 72 5 0 39 -22 76 -49 134 -98 282
-169 418 -202 80 -19 201 -25 221 -11 5 4 27 39 49 77 116 211 196 269 308
221z"/>
<path d="M2695 2844 c-19 -20 -16 -63 6 -77 50 -31 105 38 59 75 -27 22 -44
23 -65 2z"/>
<path d="M1115 2391 c-52 -23 -92 -71 -101 -119 -10 -49 158 -728 204 -826 75
-159 169 -263 375 -409 l137 -98 0 -54 c0 -66 15 -102 51 -121 41 -21 977 -21
1018 0 36 19 51 55 51 121 l0 54 137 98 c249 177 355 311 418 529 29 100 31
127 9 148 -38 38 -70 9 -94 -86 -26 -100 -51 -157 -105 -238 -63 -95 -149
-174 -315 -293 l-145 -103 -3 -72 -3 -72 -205 0 -206 0 4 183 c4 157 7 191 27
247 26 77 76 155 132 210 65 63 489 331 518 328 32 -4 65 -49 56 -77 -3 -12
-61 -64 -128 -117 -129 -102 -157 -128 -157 -149 0 -21 29 -45 53 -45 24 0
278 198 310 242 15 20 21 45 22 95 2 58 14 100 83 283 86 228 111 268 155 254
32 -9 57 -34 57 -57 0 -10 -7 -46 -15 -78 -17 -65 -10 -93 26 -104 33 -11 56
20 75 99 22 95 14 138 -35 187 -48 48 -102 65 -159 50 -78 -22 -101 -57 -187
-290 -73 -197 -80 -211 -99 -204 -12 5 -43 8 -71 8 -47 0 -62 -8 -284 -150
-256 -164 -332 -229 -391 -332 -19 -35 -37 -62 -40 -62 -3 0 -21 27 -40 62
-59 103 -135 168 -391 332 -222 142 -237 150 -284 150 -27 0 -59 -3 -71 -8
-19 -7 -26 7 -99 204 -85 230 -109 268 -182 288 -51 14 -61 14 -108 -8z m100
-103 c19 -17 48 -82 107 -238 68 -182 81 -225 83 -283 1 -49 7 -75 22 -95 32
-44 286 -242 310 -242 24 0 53 24 53 45 0 21 -28 47 -157 149 -67 53 -125 105
-128 117 -9 28 24 73 56 77 29 3 453 -265 518 -328 56 -55 106 -133 132 -210
20 -56 23 -90 27 -247 l4 -183 -206 0 -205 0 -3 72 -3 72 -145 103 c-166 119
-253 200 -316 295 -66 99 -83 149 -175 521 -89 359 -89 358 -38 384 32 17 34
17 64 -9z"/>
<path d="M3411 1933 c-23 -16 -28 -52 -9 -71 21 -21 67 -15 79 12 22 47 -28
89 -70 59z"/>
</g>
</svg>
