<?xml version="1.0" encoding="UTF-8"?>
<!DOCTYPE svg PUBLIC "-//W3C//DTD SVG 1.1//EN" "http://www.w3.org/Graphics/SVG/1.1/DTD/svg11.dtd">
<!-- Creator: CorelDRAW X8 -->
<svg xmlns="http://www.w3.org/2000/svg" xml:space="preserve" width="210mm" height="297mm" version="1.1" style="shape-rendering:geometricPrecision; text-rendering:geometricPrecision; image-rendering:optimizeQuality; fill-rule:evenodd; clip-rule:evenodd"
viewBox="0 0 21000 29700"
 xmlns:xlink="http://www.w3.org/1999/xlink">
 <defs>
  <style type="text/css">
   <![CDATA[
    .str0 {stroke:#FEFEFE;stroke-width:186.44;stroke-linecap:round;stroke-linejoin:round}
    .fil0 {fill:none;fill-rule:nonzero}
    .fil2 {fill:#21201C;fill-rule:nonzero}
    .fil1 {fill:#1C1B17;fill-rule:nonzero}
    .fil3 {fill:#FEFEFE;fill-opacity:0.501961}
    .fil4 {fill:url(#id3)}
   ]]>
  </style>
     <clipPath id="id0">
      <rect x="2386" y="12613" width="3959" height="3479"/>
     </clipPath>
     <clipPath id="id1">
      <rect x="2898" y="13186" width="2919" height="2339"/>
     </clipPath>
     <clipPath id="id2">
      <rect x="6923" y="12768" width="10287" height="2006"/>
     </clipPath>
  <linearGradient id="id3" gradientUnits="userSpaceOnUse" x1="11330.4" y1="11159.2" x2="12792.4" y2="16380.6">
   <stop offset="0" style="stop-opacity:1; stop-color:#2B2A29"/>
   <stop offset="0.0784314" style="stop-opacity:1; stop-color:#FEFEFE"/>
   <stop offset="0.160784" style="stop-opacity:1; stop-color:#565655"/>
   <stop offset="0.25098" style="stop-opacity:1; stop-color:#FEFEFE"/>
   <stop offset="0.321569" style="stop-opacity:1; stop-color:#1C1B17"/>
   <stop offset="0.380392" style="stop-opacity:1; stop-color:#B0B0B1"/>
   <stop offset="0.431373" style="stop-opacity:1; stop-color:#FEFEFE"/>
   <stop offset="0.501961" style="stop-opacity:1; stop-color:#1C1B17"/>
   <stop offset="0.580392" style="stop-opacity:1; stop-color:whitesmoke"/>
   <stop offset="0.678431" style="stop-opacity:1; stop-color:#1C1B17"/>
   <stop offset="0.741176" style="stop-opacity:1; stop-color:#FEFEFE"/>
   <stop offset="0.811765" style="stop-opacity:1; stop-color:#1C1B17"/>
   <stop offset="0.901961" style="stop-opacity:1; stop-color:#FEFEFE"/>
   <stop offset="1" style="stop-opacity:1; stop-color:#1C1B17"/>
  </linearGradient>
 </defs>
 <g id="Warstwa_x0020_1">
  <metadata id="CorelCorpID_0Corel-Layer"/>
  <g id="_2600714077488">
   <g>
    <path class="fil0 str0" d="M6862 15719l208 0c2,18 9,31 21,39 21,15 71,22 148,22 77,0 125,-4 145,-13 18,-8 27,-21 27,-38 0,-18 -11,-31 -34,-37 -10,-3 -68,-5 -174,-7 -98,0 -159,-1 -182,-5 -64,-8 -107,-29 -130,-62 -17,-25 -25,-58 -25,-99 0,-81 30,-134 89,-158 45,-19 140,-28 287,-28 103,0 178,5 226,15 26,5 49,15 68,29 19,15 32,32 39,52 6,17 10,41 12,72l-208 0c-4,-14 -8,-22 -14,-26 -17,-11 -59,-16 -128,-16 -71,0 -118,4 -140,11 -18,6 -27,17 -27,33 0,22 16,34 49,37 26,2 118,3 278,4 77,1 132,14 167,39 34,25 52,69 52,131 0,48 -10,85 -28,113 -12,18 -28,32 -49,43 -21,10 -50,18 -87,24 -51,8 -126,12 -226,12 -107,0 -185,-5 -233,-15 -31,-7 -57,-19 -78,-38 -21,-18 -36,-40 -44,-66 -5,-19 -8,-41 -9,-68zm829 -372l204 0 0 545 -204 0 0 -545zm0 -224l204 0 0 153 -204 0 0 -153zm327 0l204 0 0 249 85 -56 0 126 -85 56 0 394 -204 0 0 -272 -87 56 0 -127 87 -56 0 -370zm701 210c105,0 183,5 236,17 57,12 97,40 120,85 13,24 20,51 22,78 2,26 4,58 4,95 0,75 -4,126 -11,154 -15,62 -53,102 -111,122 -45,15 -133,22 -264,22 -115,0 -198,-6 -247,-18 -60,-13 -100,-46 -119,-97 -9,-24 -15,-49 -16,-75 -3,-32 -4,-68 -4,-108 0,-68 4,-116 13,-143 19,-57 58,-94 117,-111 47,-14 134,-21 260,-21zm-4 153c-66,0 -111,5 -135,16 -18,9 -31,23 -38,44 -6,18 -9,44 -9,78 0,38 4,65 11,80 10,21 34,35 70,42 25,4 59,7 103,7 71,0 119,-7 142,-21 16,-10 26,-24 31,-44 4,-15 7,-39 7,-70 0,-42 -5,-71 -14,-87 -11,-19 -34,-32 -71,-38 -25,-4 -58,-7 -97,-7zm398 -139l216 0 124 396 145 -396 193 0 148 390 127 -390 218 0 -203 545 -277 0 -107 -321 -110 321 -272 0 -202 -545zm1205 0l192 0 0 83 11 0c13,-26 30,-45 50,-58 38,-26 99,-39 181,-39 81,0 142,8 184,25 23,9 44,24 63,44 19,19 33,41 41,63 11,32 17,67 18,105 0,18 1,43 1,74l0 248 -205 0 0 -248c0,-44 -1,-74 -5,-91 -6,-28 -23,-47 -52,-56 -24,-7 -59,-11 -105,-11 -70,0 -117,12 -140,36 -15,16 -25,42 -28,77 -1,12 -2,37 -2,75l0 218 -204 0 0 -545zm829 0l204 0 0 545 -204 0 0 -545zm0 -224l204 0 0 153 -204 0 0 -153zm504 394l-204 0c3,-42 12,-74 27,-96 23,-32 55,-55 95,-66 52,-16 144,-23 275,-23 101,0 170,5 206,14 32,9 59,29 81,60 20,29 31,82 31,158l0 328 -196 0 0 -74 -10 0c-15,32 -39,54 -72,68 -19,9 -47,15 -83,17 -28,2 -75,3 -139,3 -71,0 -122,-6 -152,-18 -37,-15 -61,-39 -73,-72 -7,-21 -11,-48 -11,-79 0,-64 16,-109 47,-137 34,-31 88,-48 162,-51 43,-2 98,-3 165,-3 48,0 84,4 106,13 15,5 29,15 42,30l10 0 0 -29c0,-37 -6,-61 -16,-72 -12,-13 -32,-20 -63,-23 -12,-1 -31,-2 -58,-2 -82,0 -130,4 -146,11 -13,6 -21,21 -24,43zm137 146c-69,0 -112,4 -128,12 -20,10 -30,25 -30,45 0,25 13,40 38,47 20,6 55,9 103,9 63,0 108,-4 135,-10 32,-7 48,-25 48,-52 0,-22 -11,-36 -33,-45 -12,-4 -56,-6 -133,-6zm706 -125l485 0 0 156 -487 0 2 -156zm1343 135l207 0c-1,42 -5,74 -12,98 -7,27 -21,50 -40,70 -20,20 -43,34 -70,42 -34,11 -73,17 -115,20 -45,2 -95,3 -148,3 -101,0 -175,-6 -223,-19 -57,-15 -94,-43 -113,-86 -17,-37 -25,-99 -25,-186 0,-81 8,-140 25,-177 20,-44 57,-73 111,-87 49,-13 128,-19 237,-19 112,0 194,7 247,22 54,15 90,45 107,89 11,29 18,71 20,125l-208 0c-3,-25 -10,-43 -23,-53 -23,-20 -71,-30 -144,-30 -60,0 -102,6 -126,17 -16,8 -27,22 -34,41 -5,18 -8,45 -8,79 0,41 5,70 14,86 11,19 33,31 68,38 24,4 53,7 89,7 74,0 121,-10 142,-29 11,-10 18,-27 22,-51zm282 -326l191 0 0 82 11 0c16,-28 34,-49 56,-62 36,-23 88,-34 155,-34 90,0 151,20 183,61 26,32 38,82 38,150 0,10 0,24 -1,45l-192 0c0,-32 -4,-54 -10,-67 -14,-24 -46,-36 -98,-36 -48,0 -83,13 -103,40 -13,16 -21,42 -24,76 -1,13 -2,34 -2,64l0 226 -204 0 0 -545zm1072 -14c104,0 183,5 236,17 57,12 97,40 120,85 12,24 20,51 22,78 2,26 3,58 3,95 0,75 -3,126 -10,154 -16,62 -53,102 -112,122 -44,15 -132,22 -263,22 -116,0 -198,-6 -248,-18 -59,-13 -99,-46 -118,-97 -9,-24 -15,-49 -16,-75 -3,-32 -4,-68 -4,-108 0,-68 4,-116 13,-143 19,-57 58,-94 116,-111 48,-14 135,-21 261,-21zm-4 153c-66,0 -111,5 -135,16 -18,9 -31,23 -38,44 -6,18 -9,44 -9,78 0,38 4,65 11,80 10,21 33,35 70,42 25,4 59,7 103,7 71,0 119,-7 142,-21 15,-10 26,-24 31,-44 4,-15 6,-39 6,-70 0,-42 -4,-71 -14,-87 -10,-19 -33,-32 -70,-38 -25,-4 -58,-7 -97,-7zm445 233l208 0c2,18 9,31 21,39 21,15 71,22 148,22 77,0 125,-4 145,-13 18,-8 28,-21 28,-38 0,-18 -12,-31 -35,-37 -10,-3 -68,-5 -174,-7 -98,0 -159,-1 -182,-5 -64,-8 -107,-29 -130,-62 -16,-25 -25,-58 -25,-99 0,-81 30,-134 89,-158 45,-19 141,-28 287,-28 103,0 178,5 226,15 27,5 49,15 68,29 19,15 32,32 39,52 6,17 10,41 12,72l-208 0c-3,-14 -8,-22 -14,-26 -17,-11 -59,-16 -128,-16 -71,0 -117,4 -140,11 -18,6 -27,17 -27,33 0,22 17,34 49,37 26,2 119,3 278,4 77,1 132,14 167,39 34,25 52,69 52,131 0,48 -9,85 -28,113 -11,18 -28,32 -49,43 -21,10 -50,18 -87,24 -51,8 -126,12 -226,12 -107,0 -185,-5 -233,-15 -31,-7 -57,-19 -78,-38 -21,-18 -36,-40 -44,-66 -5,-19 -8,-41 -9,-68zm811 0l208 0c2,18 8,31 21,39 21,15 71,22 148,22 77,0 125,-4 145,-13 18,-8 27,-21 27,-38 0,-18 -11,-31 -34,-37 -10,-3 -69,-5 -174,-7 -98,0 -159,-1 -182,-5 -64,-8 -107,-29 -130,-62 -17,-25 -25,-58 -25,-99 0,-81 29,-134 89,-158 45,-19 140,-28 287,-28 103,0 178,5 226,15 26,5 49,15 68,29 19,15 32,32 38,52 7,17 11,41 13,72l-208 0c-4,-14 -8,-22 -14,-26 -17,-11 -60,-16 -128,-16 -71,0 -118,4 -140,11 -18,6 -27,17 -27,33 0,22 16,34 49,37 26,2 118,3 278,4 77,1 132,14 166,39 35,25 52,69 52,131 0,48 -9,85 -27,113 -12,18 -28,32 -49,43 -21,10 -50,18 -87,24 -51,8 -127,12 -226,12 -108,0 -185,-5 -233,-15 -31,-7 -57,-19 -78,-38 -21,-18 -36,-40 -44,-66 -5,-19 -8,-41 -9,-68z"/>
    <path id="1" class="fil1" d="M6862 15719l208 0c2,18 9,31 21,39 21,15 71,22 148,22 77,0 125,-4 145,-13 18,-8 27,-21 27,-38 0,-18 -11,-31 -34,-37 -10,-3 -68,-5 -174,-7 -98,0 -159,-1 -182,-5 -64,-8 -107,-29 -130,-62 -17,-25 -25,-58 -25,-99 0,-81 30,-134 89,-158 45,-19 140,-28 287,-28 103,0 178,5 226,15 26,5 49,15 68,29 19,15 32,32 39,52 6,17 10,41 12,72l-208 0c-4,-14 -8,-22 -14,-26 -17,-11 -59,-16 -128,-16 -71,0 -118,4 -140,11 -18,6 -27,17 -27,33 0,22 16,34 49,37 26,2 118,3 278,4 77,1 132,14 167,39 34,25 52,69 52,131 0,48 -10,85 -28,113 -12,18 -28,32 -49,43 -21,10 -50,18 -87,24 -51,8 -126,12 -226,12 -107,0 -185,-5 -233,-15 -31,-7 -57,-19 -78,-38 -21,-18 -36,-40 -44,-66 -5,-19 -8,-41 -9,-68zm829 -372l204 0 0 545 -204 0 0 -545zm0 -224l204 0 0 153 -204 0 0 -153zm327 0l204 0 0 249 85 -56 0 126 -85 56 0 394 -204 0 0 -272 -87 56 0 -127 87 -56 0 -370zm701 210c105,0 183,5 236,17 57,12 97,40 120,85 13,24 20,51 22,78 2,26 4,58 4,95 0,75 -4,126 -11,154 -15,62 -53,102 -111,122 -45,15 -133,22 -264,22 -115,0 -198,-6 -247,-18 -60,-13 -100,-46 -119,-97 -9,-24 -15,-49 -16,-75 -3,-32 -4,-68 -4,-108 0,-68 4,-116 13,-143 19,-57 58,-94 117,-111 47,-14 134,-21 260,-21zm-4 153c-66,0 -111,5 -135,16 -18,9 -31,23 -38,44 -6,18 -9,44 -9,78 0,38 4,65 11,80 10,21 34,35 70,42 25,4 59,7 103,7 71,0 119,-7 142,-21 16,-10 26,-24 31,-44 4,-15 7,-39 7,-70 0,-42 -5,-71 -14,-87 -11,-19 -34,-32 -71,-38 -25,-4 -58,-7 -97,-7zm398 -139l216 0 124 396 145 -396 193 0 148 390 127 -390 218 0 -203 545 -277 0 -107 -321 -110 321 -272 0 -202 -545zm1205 0l192 0 0 83 11 0c13,-26 30,-45 50,-58 38,-26 99,-39 181,-39 81,0 142,8 184,25 23,9 44,24 63,44 19,19 33,41 41,63 11,32 17,67 18,105 0,18 1,43 1,74l0 248 -205 0 0 -248c0,-44 -1,-74 -5,-91 -6,-28 -23,-47 -52,-56 -24,-7 -59,-11 -105,-11 -70,0 -117,12 -140,36 -15,16 -25,42 -28,77 -1,12 -2,37 -2,75l0 218 -204 0 0 -545zm829 0l204 0 0 545 -204 0 0 -545zm0 -224l204 0 0 153 -204 0 0 -153zm504 394l-204 0c3,-42 12,-74 27,-96 23,-32 55,-55 95,-66 52,-16 144,-23 275,-23 101,0 170,5 206,14 32,9 59,29 81,60 20,29 31,82 31,158l0 328 -196 0 0 -74 -10 0c-15,32 -39,54 -72,68 -19,9 -47,15 -83,17 -28,2 -75,3 -139,3 -71,0 -122,-6 -152,-18 -37,-15 -61,-39 -73,-72 -7,-21 -11,-48 -11,-79 0,-64 16,-109 47,-137 34,-31 88,-48 162,-51 43,-2 98,-3 165,-3 48,0 84,4 106,13 15,5 29,15 42,30l10 0 0 -29c0,-37 -6,-61 -16,-72 -12,-13 -32,-20 -63,-23 -12,-1 -31,-2 -58,-2 -82,0 -130,4 -146,11 -13,6 -21,21 -24,43zm137 146c-69,0 -112,4 -128,12 -20,10 -30,25 -30,45 0,25 13,40 38,47 20,6 55,9 103,9 63,0 108,-4 135,-10 32,-7 48,-25 48,-52 0,-22 -11,-36 -33,-45 -12,-4 -56,-6 -133,-6zm706 -125l485 0 0 156 -487 0 2 -156zm1343 135l207 0c-1,42 -5,74 -12,98 -7,27 -21,50 -40,70 -20,20 -43,34 -70,42 -34,11 -73,17 -115,20 -45,2 -95,3 -148,3 -101,0 -175,-6 -223,-19 -57,-15 -94,-43 -113,-86 -17,-37 -25,-99 -25,-186 0,-81 8,-140 25,-177 20,-44 57,-73 111,-87 49,-13 128,-19 237,-19 112,0 194,7 247,22 54,15 90,45 107,89 11,29 18,71 20,125l-208 0c-3,-25 -10,-43 -23,-53 -23,-20 -71,-30 -144,-30 -60,0 -102,6 -126,17 -16,8 -27,22 -34,41 -5,18 -8,45 -8,79 0,41 5,70 14,86 11,19 33,31 68,38 24,4 53,7 89,7 74,0 121,-10 142,-29 11,-10 18,-27 22,-51zm282 -326l191 0 0 82 11 0c16,-28 34,-49 56,-62 36,-23 88,-34 155,-34 90,0 151,20 183,61 26,32 38,82 38,150 0,10 0,24 -1,45l-192 0c0,-32 -4,-54 -10,-67 -14,-24 -46,-36 -98,-36 -48,0 -83,13 -103,40 -13,16 -21,42 -24,76 -1,13 -2,34 -2,64l0 226 -204 0 0 -545zm1072 -14c104,0 183,5 236,17 57,12 97,40 120,85 12,24 20,51 22,78 2,26 3,58 3,95 0,75 -3,126 -10,154 -16,62 -53,102 -112,122 -44,15 -132,22 -263,22 -116,0 -198,-6 -248,-18 -59,-13 -99,-46 -118,-97 -9,-24 -15,-49 -16,-75 -3,-32 -4,-68 -4,-108 0,-68 4,-116 13,-143 19,-57 58,-94 116,-111 48,-14 135,-21 261,-21zm-4 153c-66,0 -111,5 -135,16 -18,9 -31,23 -38,44 -6,18 -9,44 -9,78 0,38 4,65 11,80 10,21 33,35 70,42 25,4 59,7 103,7 71,0 119,-7 142,-21 15,-10 26,-24 31,-44 4,-15 6,-39 6,-70 0,-42 -4,-71 -14,-87 -10,-19 -33,-32 -70,-38 -25,-4 -58,-7 -97,-7zm445 233l208 0c2,18 9,31 21,39 21,15 71,22 148,22 77,0 125,-4 145,-13 18,-8 28,-21 28,-38 0,-18 -12,-31 -35,-37 -10,-3 -68,-5 -174,-7 -98,0 -159,-1 -182,-5 -64,-8 -107,-29 -130,-62 -16,-25 -25,-58 -25,-99 0,-81 30,-134 89,-158 45,-19 141,-28 287,-28 103,0 178,5 226,15 27,5 49,15 68,29 19,15 32,32 39,52 6,17 10,41 12,72l-208 0c-3,-14 -8,-22 -14,-26 -17,-11 -59,-16 -128,-16 -71,0 -117,4 -140,11 -18,6 -27,17 -27,33 0,22 17,34 49,37 26,2 119,3 278,4 77,1 132,14 167,39 34,25 52,69 52,131 0,48 -9,85 -28,113 -11,18 -28,32 -49,43 -21,10 -50,18 -87,24 -51,8 -126,12 -226,12 -107,0 -185,-5 -233,-15 -31,-7 -57,-19 -78,-38 -21,-18 -36,-40 -44,-66 -5,-19 -8,-41 -9,-68zm811 0l208 0c2,18 8,31 21,39 21,15 71,22 148,22 77,0 125,-4 145,-13 18,-8 27,-21 27,-38 0,-18 -11,-31 -34,-37 -10,-3 -69,-5 -174,-7 -98,0 -159,-1 -182,-5 -64,-8 -107,-29 -130,-62 -17,-25 -25,-58 -25,-99 0,-81 29,-134 89,-158 45,-19 140,-28 287,-28 103,0 178,5 226,15 26,5 49,15 68,29 19,15 32,32 38,52 7,17 11,41 13,72l-208 0c-4,-14 -8,-22 -14,-26 -17,-11 -60,-16 -128,-16 -71,0 -118,4 -140,11 -18,6 -27,17 -27,33 0,22 16,34 49,37 26,2 118,3 278,4 77,1 132,14 166,39 35,25 52,69 52,131 0,48 -9,85 -27,113 -12,18 -28,32 -49,43 -21,10 -50,18 -87,24 -51,8 -127,12 -226,12 -108,0 -185,-5 -233,-15 -31,-7 -57,-19 -78,-38 -21,-18 -36,-40 -44,-66 -5,-19 -8,-41 -9,-68z"/>
   </g>
   <g>
    <path class="fil2" d="M18651 17087c0,27 -17,48 -38,48 -20,0 -37,-21 -37,-48l75 0zm0 -4395l0 4395 -75 0 0 -4395 75 0zm-75 0c0,-26 17,-48 37,-48 21,0 38,22 38,48l-75 0z"/>
   </g>
   <g>
    <g style="clip-path:url(#id0)">
     <image x="2386" y="12613" width="3959" height="3479" xlink:href="Parys_logo_3D_poziom_Images\Parys_logo_3D_poziom_ImgID1.png"/>
    </g>
    <g style="clip-path:url(#id1)">
     <image x="2898" y="13186" width="2919" height="2339" xlink:href="Parys_logo_3D_poziom_Images\Parys_logo_3D_poziom_ImgID2.png"/>
    </g>
    <path class="fil3" d="M4360 13296c245,0 443,199 443,444 0,244 -198,443 -443,443 -245,0 -444,-199 -444,-443 0,-245 199,-444 444,-444zm671 1282c87,0 159,71 159,159 0,88 -72,159 -159,159 -116,0 -129,-76 -232,-1l-218 148c-68,52 -63,150 11,210 120,98 271,161 439,161 373,0 677,-303 677,-677 0,-374 -304,-677 -677,-677 -278,0 -516,167 -621,405 -23,53 -79,52 -103,-1 -105,-238 -343,-404 -619,-404 -374,0 -678,303 -678,677 0,374 304,677 678,677 167,0 318,-63 438,-161 74,-60 79,-158 11,-210l-217 -148c-104,-75 -117,1 -232,1 -88,0 -160,-71 -160,-159 0,-88 72,-159 160,-159 38,0 72,15 101,36l461 326c80,56 140,54 204,8l475 -334c30,-20 63,-36 102,-36z"/>
   </g>
   <g>
    <path class="fil4" d="M14858 13829l-4 -15 -2 -14 -2 -15 -1 -15 -1 -15 0 -379 -543 544 0 582 0 15 -1 17 -3 16 -2 16 -4 15 -5 15 -5 15 -6 14 -7 14 -7 13 -8 13 -8 12 -9 12 -10 11 -10 10 -10 10 -11 9 -11 9 -12 8 -12 8 -12 6 -12 7 -12 6 -13 5 -13 5 -13 4 -13 3 -14 3 -13 2 -14 2 -13 1 -13 0 -123 0 -13 0 -13 -1 -14 -1 -13 -3 -13 -2 -13 -4 -13 -3 -13 -5 -13 -5 -12 -5 -13 -7 -12 -6 -12 -8 -12 -8 -11 -8 -11 -9 -10 -10 -11 -11 -9 -11 -10 -11 -8 -12 -9 -13 -7 -13 -7 -14 -6 -15 -6 -15 -4 -15 -4 -16 -3 -16 -2 -16 -2 -17 0 -16 0 -582 -546 -547 0 383 0 14 -2 15 -2 15 -2 15 -4 14 -4 15 -4 13 -6 14 -6 13 -6 13 -8 13 -7 12 -9 11 -8 12 -10 10 -10 11 -10 10 -11 9 -11 9 -12 8 -12 8 -12 7 -13 7 -14 6 -13 5 -14 5 -14 4 -15 3 -14 3 -15 2 -15 1 -15 0 -137 0 396 389 11 12 11 13 9 13 9 14 8 14 6 15 5 15 4 15 3 15 2 15 1 16 -1 15 -2 15 -3 15 -4 14 -5 14 -6 14 -7 13 -8 13 -9 12 -10 11 -11 11 -12 9 -12 9 -14 8 -13 7 -15 6 -15 5 -16 4 -16 3 -16 1 -15 1 -406 0 -243 -240 -514 -506 -381 0 0 449 -1 14 -1 15 -2 15 -2 15 -4 14 -4 14 -5 14 -5 14 -6 13 -7 13 -7 12 -8 12 -8 12 -9 11 -9 11 -10 11 -10 9 -11 10 -11 9 -12 8 -12 8 -13 7 -13 7 -13 6 -13 5 -14 5 -14 4 -15 3 -15 3 -15 2 -15 1 -14 0 -60 0 -3 0 -4 0 -4 0 -3 0 -4 0 -3 -1 -3 0 -215 0 -15 0 -16 -2 -16 -2 -15 -3 -15 -4 -15 -5 -14 -5 -13 -6 -13 -7 -12 -7 -12 -8 -12 -8 -10 -8 -11 -9 -9 -8 -10 -10 -9 -9 -8 -9 -9 -10 -7 -10 -8 -9 -7 -10 -7 -10 -6 -9 -6 -10 -6 -9 -6 -10 -5 -9 -6 -9 -4 -9 -5 -8 -4 -8 -591 -1049 -406 725 496 0 28 1 29 5 28 8 26 12 25 14 22 16 19 18 18 20 14 22 13 22 10 23 9 24 6 24 4 24 3 25 1 24 -1 25 -3 24 -4 24 -7 24 -8 24 -10 23 -12 22 -14 21 -17 20 -18 18 -21 16 -24 14 -25 12 -27 8 -28 6 -27 1 -1268 0 -12 0 -13 -1 -13 -2 -13 -3 -13 -4 -13 -4 -13 -6 -12 -6 -12 -7 -12 -9 -12 -9 -11 -10 -10 -12 -9 -12 -9 -13 -7 -15 -7 -15 -5 -16 -3 -16 -3 -17 -1 -17 1 -18 1 -18 3 -18 4 -18 6 -18 6 -19 8 -18 9 -19 11 -19 11 -20 12 -17 4 -8 204 -341 -1176 0 0 449 0 14 -1 15 -2 15 -3 15 -3 14 -4 14 -5 14 -5 14 -6 13 -7 13 -7 12 -8 12 -8 12 -9 11 -10 11 -9 11 -11 9 -11 10 -11 9 -12 8 -12 8 -12 7 -13 7 -13 6 -14 5 -14 5 -14 4 -14 3 -15 3 -15 2 -15 1 -14 0 -61 0 -14 0 -16 -1 -15 -2 -14 -3 -15 -3 -14 -4 -14 -5 -13 -5 -14 -6 -13 -7 -12 -7 -12 -8 -12 -8 -11 -9 -11 -10 -10 -9 -10 -11 -9 -11 -9 -11 -9 -12 -7 -12 -8 -12 -6 -13 -6 -13 -6 -14 -4 -14 -4 -14 -4 -14 -2 -15 -2 -15 -1 -15 -1 -14 0 -1463 0 0 0 -1 0 -1 0 -1 0 -3 0 0 0 -2 0 -1 0 -2 0 -1 0 0 1 -3 0 -1 0 -1 0 0 0 -1 0 -2 0 0 0 -3 0 -1 0 0 0 -1 0 -1 0 -1 0 -1 1 0 0 -2 1 -7 1 -8 1 -7 1 -7 2 -8 2 -7 2 -7 0 -1 1 -3 2 -7 2 -5 0 -1 0 0 1 -2 0 0 0 -2 1 -1 0 -1 0 0 1 -2 0 0 0 0 1 -3 0 -1 1 -1 0 0 0 -1 1 -1 0 0 1 -3 0 -1 0 0 1 -1 0 -1 1 -1 0 -1 0 0 1 -1 0 -2 1 0 0 0 0 -1 1 -1 0 -1 0 0 1 -2 0 -1 1 0 0 -1 0 -1 1 -1 0 -1 0 0 1 -1 1 -1 0 -1 0 0 1 -1 0 -1 0 -1 1 0 0 -2 1 -1 0 0 1 -1 0 0 2 -4 1 -1 0 0 0 -1 1 -1 0 -1 2 -2 0 -1 2 -3 0 0 0 0 1 -1 0 -1 6 -8 6 -8 6 -8 6 -8 6 -7 7 -7 7 -7 7 -7 1 -1 1 -1 0 0 1 0 1 -1 0 -1 0 0 1 -1 2 -1 0 0 0 0 1 -1 1 -1 0 0 1 -1 1 0 2 -2 0 0 1 -1 1 0 2 -2 1 -1 0 0 0 0 1 -1 4 -3 0 0 1 -1 0 0 1 0 2 -2 1 -1 3 -2 1 0 0 -1 1 0 1 -1 1 0 0 -1 1 0 1 -1 1 0 0 -1 1 0 1 -1 1 0 1 -1 0 0 1 0 1 -1 1 -1 1 0 2 -2 0 0 1 0 1 -1 1 0 0 -1 1 0 9 -5 8 -4 9 -4 8 -4 9 -4 9 -3 9 -3 10 -3 9 -2 10 -2 9 -2 10 -1 10 -1 10 -1 10 -1 9 0 60 0 1 0 1724 0 14 0 15 2 15 2 15 2 14 4 15 4 13 4 14 6 13 6 13 6 13 8 12 7 11 9 12 8 11 10 10 10 10 10 9 11 9 11 8 12 8 12 7 12 7 13 6 14 5 13 5 14 4 14 3 15 3 14 2 15 1 15 1 15 0 98 120 -202 0 0 6 -10 7 -10 6 -10 7 -9 8 -10 7 -9 8 -9 8 -8 8 -9 9 -8 9 -8 9 -7 9 -8 9 -7 10 -6 10 -7 10 -6 10 -6 10 -6 11 -5 11 -5 10 -5 11 -4 12 -4 11 -4 11 -3 12 -3 12 -2 11 -2 12 -2 12 -1 12 -1 12 0 199 0 12 0 13 1 12 1 12 2 12 2 13 3 11 3 12 3 12 4 11 4 12 5 11 5 11 5 11 6 10 6 11 6 10 7 10 6 10 8 9 7 10 8 9 8 9 8 8 9 9 9 8 9 8 9 7 10 8 10 7 10 6 10 6 11 427 749 0 -646 0 0 0 -1 0 -1 0 -1 0 -3 0 0 0 -2 0 -1 0 -1 0 -1 0 -1 0 0 0 -3 0 -1 0 -1 0 0 0 -1 0 -2 0 0 0 -2 1 -2 0 0 0 -1 0 -1 0 -1 0 -1 0 0 0 -2 1 -7 1 -8 1 -7 2 -7 1 -8 2 -7 2 -7 0 -1 1 -3 2 -7 2 -5 0 -1 0 0 2 -4 0 -1 0 -1 1 0 0 -2 0 0 1 -1 0 -2 1 -1 0 -1 0 0 1 -1 0 -1 0 0 1 -2 1 -2 0 0 0 -1 1 -1 0 -1 0 -1 1 0 0 -1 1 -1 0 -1 0 -1 0 0 1 -1 0 -1 1 0 0 -2 1 -1 0 0 0 -1 1 -1 0 -1 1 -1 0 0 0 -1 1 -1 0 -1 1 0 0 -1 1 -1 0 -1 0 0 1 -2 0 -1 1 0 0 -1 0 0 3 -4 0 -1 0 0 1 -1 0 -1 1 -1 0 0 1 -2 1 -1 0 -1 1 -2 1 0 0 0 0 -1 1 -1 5 -8 6 -8 6 -8 6 -8 7 -7 6 -7 7 -7 8 -7 1 -1 0 -1 0 0 1 0 1 -1 1 -1 0 0 1 -1 1 -1 0 0 1 0 1 -1 1 -1 0 0 0 -1 1 -1 2 0 0 -1 0 0 1 -1 3 -2 1 -1 1 0 0 0 0 -1 2 -1 2 -1 2 -2 0 0 0 0 2 -2 2 -1 1 -1 0 0 0 0 1 -1 1 0 1 -1 0 0 1 -1 2 -1 0 0 1 -1 1 0 1 -1 0 0 1 -1 2 -1 0 0 1 0 1 -1 1 -1 1 0 2 -2 0 0 1 0 1 -1 1 0 0 0 2 -1 8 -5 8 -4 9 -4 9 -4 9 -4 9 -3 9 -3 9 -3 10 -2 9 -2 10 -2 9 -1 10 -1 10 -1 10 -1 9 0 61 0 0 0 1390 0 0 0 1015 0 522 520 520 -520 666 0 1 0 2 0 3 0 2 0 2 0 3 0 2 0 1784 0 14 0 15 1 15 2 15 3 15 3 14 4 14 5 13 5 13 6 13 7 13 7 12 8 12 8 11 9 11 9 10 10 10 11 9 10 9 12 8 11 8 12 7 13 7 13 6 13 5 14 5 14 4 14 4 14 2 15 2 15 1 15 1 14 0 275 -1763 0 0 173 1465 0 14 0 15 1 15 2 15 3 15 3 14 4 14 5 13 5 13 6 13 7 13 7 12 8 12 8 11 9 11 9 10 10 10 11 9 10 9 12 8 11 8 12 7 13 7 13 6 13 5 14 5 13 4 15 4 14 2 15 2 15 1 15 1 14 0 717 -1 15 -1 15 -2 15 -2 14 -4 15 -4 14 -5 14 -5 13 -6 14 -7 13 -7 12 -8 12 -8 12 -9 11 -9 11 -10 10 -10 10 -11 10 -11 8 -12 9 -12 7 -13 8 -13 6 -13 6 -13 6 -14 4 -14 4 -15 4 -15 2 -15 2 -15 2 -14 0 -1785 0 -14 0 -15 -2 -15 -2 -15 -2 -15 -4 -14 -4 -14 -4 -13 -6 -13 -6 -13 -6 -13 -8 -12 -7 -12 -9 -11 -8 -11 -10 -10 -10 -10 -10 -9 -11 -9 -11 -8 -12 -8 -12 -7 -12 -7 -13 -6 -14 -5 -13 -5 -14 -4 -14 -4 -15 -2 -14 -2 -15 -1 -15 -1 -15 0 -263 1739 0 0 -184 -1441 0 -14 0 -15 -2 -15 -1 -15 -3 -15 -3 -14 -4 -14 -5 -13 -6 -13 -6 -13 -6 -13 -7 -12 -8 -12 -8 -11 -9 -11 -10 -10 -10 -10 -10 -9 -11 -9 -11 -8 -12 -8 -12 -7 -12 -7 -13 -6 -13 -5 -14 -5 -14 -4 -14zm-6217 -392l0 -135 -1091 0 0 135 1091 0zm3766 0l0 -135 -1090 0 0 135 1090 0z"/>
    <g style="clip-path:url(#id2)">
     <image x="6923" y="12768" width="10287" height="2006" xlink:href="Parys_logo_3D_poziom_Images\Parys_logo_3D_poziom_ImgID3.png"/>
    </g>
   </g>
   <g>
    <path class="fil2" d="M18614 17124l0 -74c24,0 43,16 43,37 0,20 -19,37 -43,37zm-16163 0l0 -74 16163 0 0 74 -16163 0zm0 -74l0 74c-24,0 -43,-17 -43,-37 0,-21 19,-37 43,-37z"/>
   </g>
  </g>
 </g>
</svg>
