<?xml version="1.0" encoding="UTF-8"?>
<!DOCTYPE svg PUBLIC "-//W3C//DTD SVG 1.1//EN" "http://www.w3.org/Graphics/SVG/1.1/DTD/svg11.dtd">
<!-- Creator: CorelDRAW X8 -->
<svg xmlns="http://www.w3.org/2000/svg" xml:space="preserve" width="210mm" height="297mm" version="1.1" style="shape-rendering:geometricPrecision; text-rendering:geometricPrecision; image-rendering:optimizeQuality; fill-rule:evenodd; clip-rule:evenodd"
viewBox="0 0 21000 29700"
 xmlns:xlink="http://www.w3.org/1999/xlink">
 <defs>
  <style type="text/css">
   <![CDATA[
    .fil0 {fill:#2B2A29;fill-rule:nonzero}
   ]]>
  </style>
 </defs>
 <g id="Warstwa_x0020_1">
  <metadata id="CorelCorpID_0Corel-Layer"/>
  <g id="_2600750559248">
   <path class="fil0" d="M5391 14092l364 0c2,31 14,54 36,68 37,26 124,39 259,39 134,0 219,-8 254,-24 31,-14 47,-35 47,-65 0,-33 -20,-55 -60,-66 -18,-5 -120,-9 -304,-11 -172,0 -278,-3 -318,-9 -112,-15 -188,-51 -227,-109 -29,-44 -44,-101 -44,-174 0,-141 52,-233 155,-276 79,-32 246,-48 503,-48 179,0 310,8 395,25 45,9 85,27 118,52 33,25 56,55 67,90 11,30 18,72 22,127l-363 0c-7,-24 -15,-40 -24,-47 -30,-18 -105,-28 -225,-28 -123,0 -205,7 -245,21 -31,11 -46,30 -46,57 0,39 28,60 85,64 45,3 207,6 487,8 134,1 230,23 290,68 61,44 91,121 91,229 0,84 -16,149 -47,197 -21,32 -50,57 -87,75 -37,18 -87,32 -152,42 -90,14 -221,21 -394,21 -189,0 -325,-8 -409,-26 -53,-12 -98,-34 -136,-65 -36,-32 -62,-71 -76,-117 -9,-32 -14,-72 -16,-118zm1585 -651l356 0 0 953 -356 0 0 -953zm0 -391l356 0 0 268 -356 0 0 -268zm708 0l357 0 0 435 149 -97 0 220 -149 98 0 688 -357 0 0 -476 -151 98 0 -221 151 -98 0 -647zm1362 367c182,0 320,9 412,29 100,21 169,70 209,149 23,43 36,89 40,137 4,45 6,101 6,166 0,130 -7,220 -19,269 -27,108 -92,179 -195,213 -78,26 -231,38 -460,38 -202,0 -346,-10 -433,-30 -104,-24 -173,-81 -207,-170 -16,-42 -26,-86 -29,-132 -4,-56 -6,-119 -6,-188 0,-120 8,-203 23,-250 33,-99 101,-164 203,-195 83,-24 235,-36 456,-36zm-8 268c-115,0 -193,9 -235,27 -32,15 -54,41 -66,77 -11,31 -16,76 -16,137 0,67 6,113 19,140 17,36 58,60 123,73 43,7 102,11 179,11 125,0 208,-12 248,-36 28,-16 46,-42 55,-76 7,-27 11,-68 11,-124 0,-73 -8,-124 -24,-152 -19,-32 -60,-55 -123,-66 -45,-7 -102,-11 -171,-11zm832 -244l377 0 219 692 253 -692 337 0 258 682 222 -682 381 0 -355 953 -483 0 -188 -561 -192 561 -475 0 -354 -953zm2244 0l334 0 0 145 21 0c22,-44 51,-78 86,-102 67,-45 174,-67 318,-67 140,0 247,14 321,44 39,16 76,42 110,76 33,34 57,71 71,111 20,55 30,116 32,183 1,32 1,76 1,130l0 433 -357 0 0 -433c0,-77 -3,-130 -10,-159 -10,-50 -40,-83 -90,-98 -43,-13 -104,-19 -184,-19 -123,0 -204,20 -244,62 -27,29 -44,74 -49,135 -2,21 -3,65 -3,131l0 381 -357 0 0 -953zm1585 0l357 0 0 953 -357 0 0 -953zm0 -391l357 0 0 268 -357 0 0 -268zm1016 689l-355 0c5,-74 20,-130 47,-168 41,-57 95,-96 165,-116 92,-27 252,-40 481,-40 178,0 297,8 360,25 57,15 104,50 141,104 36,51 55,143 55,276l0 574 -343 0 0 -129 -17 0c-26,55 -68,95 -125,119 -34,15 -83,25 -146,29 -49,4 -130,5 -243,5 -124,0 -213,-10 -266,-31 -63,-26 -106,-67 -127,-126 -13,-37 -19,-84 -19,-138 0,-111 27,-191 81,-240 60,-53 154,-83 283,-88 76,-4 172,-6 289,-6 84,0 146,8 186,22 26,10 50,28 74,53l16 0 0 -51c0,-64 -9,-106 -28,-125 -20,-22 -56,-36 -109,-41 -21,-2 -55,-3 -102,-3 -143,0 -228,7 -255,20 -23,10 -37,35 -43,75zm240 254c-120,0 -195,7 -224,22 -34,16 -52,43 -52,79 0,42 23,69 67,82 35,10 96,15 180,15 110,0 189,-6 236,-17 56,-13 84,-44 84,-91 0,-38 -20,-64 -58,-78 -21,-8 -98,-12 -233,-12z"/>
   <path class="fil0" d="M17591 14921l-14133 0c-27,0 -49,22 -49,49l0 123c0,28 22,50 49,50 4767,0 9367,0 14133,1l0 -223z"/>
   <path class="fil0" d="M7762 16243l363 0c-3,73 -10,130 -22,172 -12,46 -36,86 -70,121 -34,35 -74,60 -122,75 -60,18 -127,30 -200,33 -80,4 -167,6 -260,6 -176,0 -306,-11 -390,-33 -99,-26 -165,-76 -198,-150 -28,-64 -43,-173 -43,-326 0,-142 15,-245 43,-308 35,-77 100,-128 194,-153 86,-22 224,-34 414,-34 197,0 341,14 433,40 94,26 157,78 187,156 20,50 32,122 35,218l-363 0c-5,-44 -18,-75 -41,-94 -40,-34 -124,-51 -251,-51 -106,0 -180,9 -222,29 -27,14 -46,38 -57,71 -10,33 -15,79 -15,139 0,72 8,122 24,151 19,33 58,54 119,65 42,8 93,12 156,12 129,0 211,-16 247,-49 20,-19 33,-49 39,-90zm630 -570l334 0 0 143 20 0c26,-49 59,-85 97,-109 62,-39 153,-58 271,-58 158,0 264,35 320,106 44,56 66,144 66,263 0,16 -1,42 -3,78l-335 0c0,-55 -6,-94 -18,-117 -23,-42 -80,-62 -170,-62 -85,0 -145,22 -180,68 -23,29 -37,74 -42,134 -2,23 -3,60 -3,111l0 396 -357 0 0 -953zm2010 -24c182,0 320,9 412,29 100,21 169,70 209,149 23,43 36,89 40,137 4,45 6,101 6,166 0,130 -7,220 -19,269 -27,108 -92,179 -195,213 -78,26 -231,38 -460,38 -202,0 -346,-10 -433,-30 -104,-24 -173,-81 -207,-170 -16,-42 -26,-86 -29,-132 -4,-56 -6,-119 -6,-188 0,-120 8,-203 23,-250 33,-99 101,-164 203,-195 83,-24 235,-36 456,-36zm-8 268c-115,0 -193,9 -235,27 -32,15 -54,41 -66,77 -11,31 -16,76 -16,137 0,67 6,113 19,140 17,35 58,60 122,72 43,8 103,12 180,12 125,0 208,-12 248,-36 28,-17 46,-42 55,-76 7,-27 11,-68 11,-124 0,-73 -8,-124 -25,-152 -18,-32 -59,-55 -122,-66 -45,-7 -102,-11 -171,-11zm916 407l363 0c3,31 15,54 37,68 37,26 123,39 258,39 134,0 219,-8 254,-24 32,-14 48,-36 48,-65 0,-33 -21,-55 -61,-66 -18,-5 -119,-9 -304,-11 -172,0 -278,-3 -318,-9 -112,-15 -187,-52 -226,-109 -30,-44 -45,-101 -45,-174 0,-141 52,-233 156,-276 78,-32 245,-48 502,-48 179,0 311,8 395,25 46,9 85,27 119,52 33,25 55,55 67,90 11,30 18,72 22,127l-364 0c-6,-24 -14,-40 -24,-47 -30,-18 -105,-28 -225,-28 -123,0 -205,7 -245,21 -31,10 -46,30 -46,57 0,39 28,60 86,64 44,3 207,6 486,8 134,1 231,23 291,68 60,44 90,121 90,229 0,84 -15,149 -47,197 -21,31 -50,57 -87,75 -36,18 -87,32 -151,42 -90,14 -222,21 -395,21 -188,0 -324,-8 -408,-26 -54,-12 -99,-34 -136,-65 -37,-32 -63,-71 -76,-117 -10,-32 -15,-72 -16,-118zm1553 0l363 0c3,31 15,54 37,68 37,26 124,39 259,39 134,0 218,-8 254,-24 31,-14 47,-36 47,-65 0,-33 -20,-55 -60,-66 -18,-5 -120,-9 -304,-11 -172,0 -278,-3 -318,-9 -112,-15 -188,-52 -227,-109 -30,-44 -44,-101 -44,-174 0,-141 51,-233 155,-276 79,-32 246,-48 503,-48 179,0 310,8 395,25 45,9 85,27 118,52 33,25 56,55 67,90 11,30 18,72 22,127l-363 0c-7,-24 -15,-40 -24,-47 -30,-18 -105,-28 -225,-28 -124,0 -205,7 -245,21 -31,10 -47,30 -47,57 0,39 29,60 86,64 45,3 207,6 487,8 134,1 230,23 290,68 61,44 91,121 91,229 0,84 -16,149 -47,197 -21,31 -50,57 -87,75 -37,18 -87,32 -152,42 -90,14 -221,21 -394,21 -189,0 -325,-8 -409,-26 -53,-12 -98,-34 -136,-65 -37,-32 -62,-71 -76,-117 -9,-32 -14,-72 -16,-118z"/>
  </g>
 </g>
</svg>
