<?xml version="1.0" encoding="UTF-8"?>
<!DOCTYPE svg PUBLIC "-//W3C//DTD SVG 1.1//EN" "http://www.w3.org/Graphics/SVG/1.1/DTD/svg11.dtd">
<!-- Creator: CorelDRAW X8 -->
<svg xmlns="http://www.w3.org/2000/svg" xml:space="preserve" width="210mm" height="297mm" version="1.1" style="shape-rendering:geometricPrecision; text-rendering:geometricPrecision; image-rendering:optimizeQuality; fill-rule:evenodd; clip-rule:evenodd"
viewBox="0 0 21000 29700"
 xmlns:xlink="http://www.w3.org/1999/xlink">
 <defs>
  <style type="text/css">
   <![CDATA[
    .str0 {stroke:#EBECEC;stroke-width:7.62}
    .str1 {stroke:#FEFEFE;stroke-width:151.45;stroke-linecap:round;stroke-linejoin:round}
    .fil1 {fill:none;fill-rule:nonzero}
    .fil3 {fill:#2B2A29}
    .fil5 {fill:#952825}
    .fil4 {fill:#E31E24}
    .fil6 {fill:#FEFEFE}
    .fil2 {fill:#2B2A29;fill-rule:nonzero}
    .fil0 {fill:url(#id0)}
   ]]>
  </style>
  <linearGradient id="id0" gradientUnits="userSpaceOnUse" x1="12191.4" y1="11114" x2="13920.5" y2="17288">
   <stop offset="0" style="stop-opacity:1; stop-color:#EBECEC"/>
   <stop offset="0.0784314" style="stop-opacity:1; stop-color:#FEFEFE"/>
   <stop offset="0.160784" style="stop-opacity:1; stop-color:#EBECEC"/>
   <stop offset="0.25098" style="stop-opacity:1; stop-color:#FEFEFE"/>
   <stop offset="0.321569" style="stop-opacity:1; stop-color:#EBECEC"/>
   <stop offset="0.380392" style="stop-opacity:1; stop-color:#B0B0B1"/>
   <stop offset="0.431373" style="stop-opacity:1; stop-color:#FEFEFE"/>
   <stop offset="0.501961" style="stop-opacity:1; stop-color:#EBECEC"/>
   <stop offset="0.580392" style="stop-opacity:1; stop-color:whitesmoke"/>
   <stop offset="0.678431" style="stop-opacity:1; stop-color:#EBECEC"/>
   <stop offset="0.741176" style="stop-opacity:1; stop-color:#FEFEFE"/>
   <stop offset="0.811765" style="stop-opacity:1; stop-color:#EBECEC"/>
   <stop offset="0.901961" style="stop-opacity:1; stop-color:#FEFEFE"/>
   <stop offset="1" style="stop-opacity:1; stop-color:#EBECEC"/>
  </linearGradient>
 </defs>
 <g id="Warstwa_x0020_1">
  <metadata id="CorelCorpID_0Corel-Layer"/>
  <g id="_2600714081232">
   <path class="fil0 str0" d="M16364 14271l-4 -17 -4 -18 -2 -17 -1 -18 -1 -17 0 -448 -642 642 0 689 -1 18 -1 20 -3 19 -3 19 -5 18 -4 18 -7 17 -7 17 -8 16 -9 15 -9 15 -10 15 -11 13 -11 13 -11 13 -13 11 -13 11 -13 11 -13 10 -15 9 -14 7 -14 8 -15 7 -16 6 -14 6 -16 5 -15 3 -16 4 -16 2 -16 2 -16 1 -16 1 -145 0 -15 0 -15 -2 -17 -1 -16 -3 -15 -3 -16 -3 -15 -5 -15 -5 -15 -6 -15 -7 -15 -7 -14 -9 -14 -8 -14 -9 -14 -11 -12 -11 -13 -11 -12 -12 -12 -13 -10 -13 -11 -15 -9 -16 -10 -15 -8 -17 -6 -17 -7 -17 -6 -19 -4 -18 -4 -19 -2 -19 -2 -21 -1 -18 0 -689 -645 -646 0 452 0 17 -1 19 -3 17 -3 18 -4 16 -5 17 -6 17 -6 16 -7 16 -7 14 -9 15 -10 15 -10 13 -10 14 -11 13 -12 12 -12 11 -12 12 -14 10 -14 10 -14 9 -15 9 -15 8 -15 7 -17 6 -17 5 -16 5 -17 4 -17 3 -18 3 -19 1 -16 0 -162 0 468 460 12 14 13 15 12 16 10 16 9 17 8 17 6 18 5 18 3 18 3 18 0 18 0 18 -3 18 -3 18 -5 16 -6 18 -7 15 -9 16 -9 15 -11 14 -12 13 -12 13 -15 11 -15 11 -15 9 -16 9 -18 7 -17 5 -19 5 -18 3 -20 2 -17 1 -480 0 -288 -284 -608 -598 -451 0 0 531 0 16 -2 18 -2 17 -3 18 -4 17 -5 17 -6 17 -6 15 -7 16 -8 16 -8 14 -10 15 -10 14 -10 12 -11 14 -12 12 -12 11 -13 11 -13 11 -14 10 -14 8 -15 9 -16 8 -15 8 -16 6 -16 6 -17 4 -18 4 -16 3 -18 2 -18 2 -17 0 -71 0 -4 0 -4 0 -5 0 -4 0 -4 -1 -4 0 -4 0 -254 0 -18 -1 -19 -1 -18 -3 -19 -4 -17 -4 -17 -5 -17 -7 -15 -7 -16 -8 -15 -9 -13 -8 -14 -10 -13 -10 -11 -10 -12 -10 -12 -11 -10 -12 -10 -11 -10 -11 -9 -11 -9 -12 -8 -12 -8 -10 -8 -12 -7 -12 -7 -11 -7 -10 -6 -11 -6 -11 -6 -10 -6 -10 -5 -9 -698 -1241 -480 857 585 0 34 2 35 6 33 9 31 13 28 17 27 19 23 22 21 23 17 26 15 26 12 28 9 28 8 28 5 29 3 29 1 29 -1 28 -3 30 -5 28 -8 28 -9 28 -12 27 -15 27 -16 24 -20 23 -21 23 -26 18 -27 18 -30 13 -32 10 -34 6 -32 2 -1499 0 -13 -1 -16 -1 -16 -2 -15 -4 -16 -3 -15 -6 -15 -6 -15 -8 -13 -9 -15 -10 -14 -10 -13 -12 -11 -14 -12 -14 -10 -16 -9 -18 -7 -17 -6 -19 -4 -19 -3 -21 -1 -20 0 -21 2 -20 4 -22 5 -21 6 -22 7 -22 10 -22 11 -22 12 -23 13 -23 14 -21 5 -8 241 -404 -1390 0 0 531 0 16 -2 18 -2 17 -3 18 -4 17 -5 17 -5 17 -7 15 -7 16 -8 16 -9 14 -9 15 -9 14 -11 12 -11 14 -11 12 -13 11 -13 11 -13 11 -13 10 -15 8 -15 9 -15 8 -16 8 -15 6 -17 6 -17 4 -17 4 -18 3 -17 2 -18 2 -17 0 -72 0 -17 0 -17 -2 -19 -2 -16 -3 -18 -4 -16 -4 -17 -6 -16 -6 -15 -8 -16 -8 -15 -8 -14 -9 -14 -10 -13 -11 -12 -11 -13 -11 -12 -13 -11 -13 -10 -12 -10 -14 -10 -15 -8 -14 -7 -16 -8 -16 -6 -15 -6 -17 -5 -17 -4 -17 -3 -18 -2 -17 -2 -18 0 -16 0 -1730 0 -1 0 -1 0 0 0 -1 0 -3 0 -1 0 -3 0 0 0 -3 0 -1 0 0 0 -3 0 -2 1 -1 0 -1 0 -1 0 -1 0 -1 0 -3 0 -1 0 -1 0 -1 0 -1 0 -1 1 -1 0 -1 0 -2 1 -9 1 -8 2 -8 1 -9 2 -9 2 -8 3 -8 0 -2 1 -3 2 -9 3 -6 0 -1 0 -1 1 -1 0 0 1 -3 1 -1 0 -1 0 -1 1 -1 0 -1 0 0 1 -3 1 -1 0 -1 0 0 1 -2 0 -1 0 0 2 -3 0 -1 0 0 1 -1 0 -2 1 -1 0 0 0 -1 1 -2 1 -1 0 -1 0 0 1 -1 0 -2 1 0 0 -1 1 -2 1 -1 0 0 0 -1 1 -1 0 -1 1 -1 0 -1 0 -1 0 -2 1 0 0 -1 1 -1 0 -1 1 -1 0 0 1 -2 1 -1 0 -1 0 0 1 -1 2 -4 1 -1 0 0 0 -1 1 -1 1 -2 2 -2 0 -2 2 -2 1 -1 0 0 0 -1 1 -2 7 -9 7 -10 7 -9 6 -9 8 -9 8 -8 9 -9 8 -7 2 -1 0 -1 1 0 1 -1 1 -1 0 0 1 -1 1 -1 0 -1 1 0 0 -1 2 -1 1 -1 0 0 0 0 1 -1 3 -2 0 0 1 -1 1 -1 3 -2 1 -1 0 0 1 -1 0 0 5 -3 0 -1 1 0 1 -1 0 0 3 -2 1 -1 4 -3 1 0 1 -1 0 0 1 -1 2 -1 0 0 1 -1 1 -1 1 0 1 -1 0 0 2 -1 1 -1 1 0 0 0 0 0 1 -1 1 -1 2 -1 2 -1 0 0 1 -1 2 -1 1 0 0 0 2 -1 10 -6 10 -5 10 -5 10 -4 11 -5 11 -4 10 -3 11 -4 11 -1 12 -3 10 -2 12 -2 12 -1 12 -1 11 -1 12 0 70 0 1 0 2039 0 17 0 18 2 18 2 17 3 17 4 17 4 16 6 16 6 16 8 15 8 15 8 15 9 13 10 14 11 13 11 11 11 12 12 11 14 11 12 9 14 10 15 8 14 8 16 7 16 6 15 6 17 5 17 4 17 3 17 2 18 2 18 0 16 0 117 142 -239 0 -1 7 -10 8 -12 8 -12 9 -12 9 -10 8 -11 9 -11 10 -10 10 -10 10 -9 10 -10 11 -9 11 -8 11 -9 11 -8 12 -8 12 -7 12 -8 12 -5 13 -7 12 -6 13 -5 13 -6 13 -5 14 -4 13 -4 14 -2 14 -3 14 -3 14 -2 14 -1 14 -1 14 0 236 0 14 0 14 1 15 2 15 2 14 2 14 3 15 3 13 4 14 5 14 5 13 5 13 6 13 7 12 7 13 6 13 8 11 8 12 8 12 9 12 8 10 9 11 10 11 10 11 10 9 10 10 11 9 11 9 11 9 12 8 12 8 13 7 11 504 886 0 -763 0 -1 0 -1 0 0 0 -1 0 -3 0 -1 0 -3 0 0 0 -1 0 -2 0 -1 0 0 1 -4 0 -1 0 -1 0 -1 0 -1 0 -1 0 -1 0 -3 0 -1 0 -1 0 -1 0 -1 1 -1 0 -1 0 -1 0 -2 1 -9 1 -8 2 -8 1 -9 2 -9 2 -8 3 -8 0 -2 1 -3 3 -9 2 -6 0 -1 0 0 2 -5 1 -1 0 -1 0 -1 1 -1 0 -1 0 -1 1 -2 0 -1 0 -1 1 0 0 -2 0 -1 1 0 1 -2 0 -2 1 -1 0 0 0 -2 1 -1 0 0 0 -1 1 -1 1 -2 0 -1 1 0 0 -1 1 -2 0 0 0 -1 1 -2 1 -1 0 0 0 -1 1 -1 0 -1 1 -1 0 -1 1 -1 0 -1 1 -1 0 -1 1 -1 0 -1 1 -1 0 -1 1 -1 1 -1 0 -1 0 0 1 -1 2 -4 1 -1 0 0 1 -1 1 -2 0 -1 0 0 2 -2 0 -1 1 -1 1 -2 1 -1 0 0 0 -1 1 -2 7 -9 6 -10 7 -9 8 -9 7 -9 9 -8 8 -9 8 -7 1 -1 0 -1 1 0 1 -1 1 -1 0 0 1 -1 1 -1 1 -1 1 0 0 -1 2 -1 1 -1 0 0 0 0 2 -1 1 -2 1 0 0 0 1 -1 4 -3 1 -1 1 0 0 -1 0 0 3 -2 1 -1 3 -2 0 0 1 0 2 -2 2 -1 1 -1 0 -1 1 0 0 -1 1 0 1 -1 0 0 1 -1 3 -2 0 0 1 -1 1 0 1 -1 0 0 2 -1 2 -1 0 0 1 0 2 -1 1 -1 1 -1 3 -1 0 0 1 -1 1 -1 1 0 0 0 2 -1 10 -6 9 -5 10 -5 11 -4 11 -5 10 -4 11 -3 11 -4 11 -1 11 -3 12 -2 11 -2 12 -1 11 -1 12 -1 12 0 70 0 1 0 1643 0 0 0 1201 0 617 614 615 -614 787 0 2 0 3 0 2 -1 3 0 3 0 3 0 2 0 2110 0 17 1 18 1 17 2 18 4 17 4 16 4 17 5 17 7 15 7 15 8 14 9 15 8 14 10 13 11 13 11 12 11 12 13 11 13 10 13 11 14 9 14 8 15 8 15 7 16 6 16 6 16 5 18 4 16 3 18 2 17 1 18 1 17 0 325 -2084 0 0 204 1732 0 17 0 18 2 17 2 18 3 17 4 16 5 17 5 17 7 15 7 15 8 14 9 15 9 14 9 13 11 13 11 12 12 12 12 11 13 10 13 11 13 9 15 8 15 8 15 7 16 6 15 6 17 5 17 4 17 3 18 2 17 1 18 1 17 0 848 -1 17 -1 18 -2 17 -3 18 -4 17 -5 16 -6 17 -6 16 -7 16 -8 15 -8 14 -9 15 -11 14 -10 13 -11 13 -12 12 -12 11 -13 12 -13 10 -14 11 -15 8 -14 9 -15 8 -15 7 -17 6 -17 6 -16 5 -17 3 -18 3 -17 3 -19 1 -16 1 -2111 0 -17 -1 -18 -1 -17 -3 -18 -3 -16 -3 -18 -5 -16 -6 -16 -6 -16 -7 -15 -8 -15 -9 -14 -8 -13 -11 -14 -10 -13 -12 -12 -11 -12 -12 -11 -13 -11 -13 -9 -14 -9 -15 -9 -14 -8 -15 -7 -16 -7 -16 -4 -17 -5 -16 -4 -17 -4 -18 -2 -17 -1 -18 -1 -17 0 -312 2056 0 0 -217 -1704 0 -17 -1 -18 -1 -17 -2 -18 -3 -16 -5 -18 -4 -16 -5 -16 -7 -16 -7 -15 -8 -15 -9 -14 -8 -13 -10 -14 -11 -13 -11 -12 -11 -12 -13 -11 -13 -11 -13 -9 -14 -9 -14 -9 -15 -8 -15 -7 -16 -7 -15 -4 -17 -5 -17zm-7352 -463l0 -160 -1290 0 0 160 1290 0zm4454 0l0 -160 -1290 0 0 160 1290 0z"/>
   <g>
    <g>
     <g>
      <path class="fil1 str1" d="M6925 16542l246 0c2,20 10,36 25,46 25,17 83,26 175,26 90,0 148,-6 172,-16 21,-10 32,-24 32,-44 0,-23 -14,-37 -41,-45 -12,-3 -81,-6 -206,-7 -116,0 -188,-3 -215,-6 -76,-11 -127,-35 -153,-74 -20,-30 -30,-69 -30,-118 0,-95 35,-158 105,-187 53,-21 166,-32 340,-32 121,0 210,5 267,17 31,6 58,18 80,35 22,17 38,37 46,61 7,20 12,49 14,86l-245 0c-5,-17 -10,-27 -17,-32 -20,-12 -71,-19 -152,-19 -83,0 -139,5 -166,14 -21,7 -31,20 -31,39 0,26 19,41 58,43 30,3 140,4 329,6 91,0 156,15 197,46 41,29 61,81 61,155 0,56 -11,101 -32,133 -14,21 -34,38 -59,50 -24,13 -59,22 -102,29 -61,9 -150,14 -267,14 -128,0 -220,-6 -277,-18 -36,-8 -66,-22 -91,-44 -25,-21 -43,-47 -52,-78 -6,-22 -10,-49 -11,-80zm980 -441l241 0 0 645 -241 0 0 -645zm0 -264l241 0 0 181 -241 0 0 -181zm387 0l241 0 0 294 101 -66 0 149 -101 66 0 466 -241 0 0 -322 -102 66 0 -149 102 -67 0 -437zm829 248c124,0 217,6 279,20 67,14 115,47 142,100 15,29 24,60 26,93 3,31 4,68 4,113 0,87 -4,148 -12,181 -19,73 -63,121 -132,144 -53,18 -157,26 -311,26 -137,0 -235,-6 -293,-20 -71,-17 -118,-55 -141,-115 -10,-29 -17,-58 -19,-89 -3,-39 -4,-81 -4,-127 0,-82 5,-138 15,-170 23,-67 68,-111 138,-132 56,-16 159,-24 308,-24zm-5 181c-78,0 -131,6 -159,19 -22,10 -37,27 -45,52 -7,20 -11,51 -11,92 0,45 5,77 13,95 12,24 40,41 83,49 29,5 70,8 121,8 85,0 141,-8 168,-24 19,-12 32,-29 38,-52 4,-18 7,-46 7,-84 0,-49 -6,-83 -17,-102 -12,-22 -40,-37 -83,-45 -30,-5 -68,-8 -115,-8zm471 -165l255 0 148 469 171 -469 228 0 174 461 151 -461 258 0 -241 645 -327 0 -127 -379 -130 379 -321 0 -239 -645zm1425 0l227 0 0 98 13 0c16,-30 35,-53 59,-69 45,-30 117,-45 215,-45 95,0 167,10 217,30 27,11 51,28 74,51 23,23 39,48 49,76 13,36 20,78 21,123 0,22 1,51 1,88l0 293 -242 0 0 -293c0,-52 -2,-88 -6,-108 -7,-33 -28,-56 -61,-66 -29,-9 -71,-13 -125,-13 -83,0 -138,14 -165,43 -18,19 -30,49 -33,91 -2,14 -2,44 -2,88l0 258 -242 0 0 -645zm980 0l242 0 0 645 -242 0 0 -645zm0 -264l242 0 0 181 -242 0 0 -181zm596 466l-240 0c3,-50 13,-88 31,-114 28,-38 65,-65 112,-78 62,-19 170,-28 325,-28 120,0 201,6 244,18 38,10 70,33 96,70 24,34 36,97 36,187l0 388 -232 0 0 -87 -11 0c-18,37 -46,64 -85,80 -23,10 -56,17 -98,20 -34,2 -89,3 -165,3 -84,0 -144,-7 -180,-21 -43,-17 -71,-45 -85,-85 -9,-25 -14,-57 -14,-94 0,-75 19,-129 55,-162 41,-36 104,-56 192,-60 51,-2 116,-3 195,-3 57,0 99,5 126,15 18,6 34,18 50,35l11 0 0 -34c0,-43 -6,-72 -19,-85 -13,-15 -38,-24 -74,-27 -14,-2 -37,-2 -69,-2 -96,0 -154,4 -173,13 -15,7 -25,24 -28,51zm162 172c-81,0 -132,4 -151,14 -24,12 -35,30 -35,54 0,29 15,47 45,55 24,7 64,10 122,10 74,0 127,-4 159,-11 38,-9 57,-29 57,-61 0,-26 -14,-44 -40,-53 -13,-6 -66,-8 -157,-8zm835 -148l573 0 0 185 -575 0 2 -185zm1588 160l246 0c-2,49 -7,88 -15,116 -9,31 -24,59 -47,82 -23,24 -51,41 -83,51 -41,12 -86,20 -136,22 -54,3 -112,4 -175,4 -119,0 -207,-7 -264,-22 -67,-18 -111,-51 -134,-101 -19,-44 -29,-118 -29,-221 0,-96 10,-166 29,-209 24,-52 68,-86 131,-103 59,-15 152,-23 281,-23 132,0 230,9 292,27 64,18 106,53 127,105 13,34 21,83 23,148l-245 0c-4,-30 -13,-51 -28,-63 -27,-24 -84,-35 -170,-35 -71,0 -121,6 -150,20 -18,9 -31,25 -39,48 -6,22 -10,53 -10,94 0,48 6,82 17,102 12,22 39,36 80,44 28,5 63,8 105,8 88,0 143,-11 168,-33 13,-13 22,-33 26,-61zm334 -386l226 0 0 97 13 0c19,-33 41,-57 66,-74 43,-26 104,-39 184,-39 106,0 179,24 216,72 30,38 45,97 45,178 0,11 -1,28 -2,52l-227 0c0,-37 -4,-63 -12,-78 -16,-29 -54,-43 -115,-43 -57,0 -98,16 -122,47 -15,19 -25,49 -29,90 -1,16 -2,41 -2,75l0 268 -241 0 0 -645zm1268 -16c123,0 216,6 279,20 67,14 114,47 141,100 15,29 24,60 27,93 2,31 4,68 4,113 0,87 -5,148 -13,181 -18,73 -62,121 -131,144 -53,18 -157,26 -312,26 -137,0 -234,-6 -293,-20 -70,-17 -117,-55 -140,-115 -11,-29 -17,-58 -19,-89 -3,-39 -4,-81 -4,-127 0,-82 5,-138 15,-170 22,-67 68,-111 138,-132 55,-16 158,-24 308,-24zm-6 181c-77,0 -130,6 -158,19 -22,10 -37,27 -45,52 -7,20 -11,51 -11,92 0,45 4,77 13,95 11,24 39,41 83,49 29,5 69,8 121,8 85,0 141,-8 168,-24 19,-12 31,-29 37,-52 5,-18 7,-46 7,-84 0,-49 -5,-83 -16,-102 -13,-22 -40,-37 -83,-45 -30,-5 -69,-8 -116,-8zm528 276l245 0c2,20 10,36 25,46 25,17 84,26 175,26 91,0 148,-6 172,-16 21,-10 32,-24 32,-44 0,-23 -14,-37 -41,-45 -12,-3 -81,-6 -205,-7 -117,0 -189,-3 -216,-6 -75,-11 -126,-35 -153,-74 -20,-30 -30,-69 -30,-118 0,-95 35,-158 105,-187 53,-21 166,-32 340,-32 121,0 210,5 267,17 31,6 58,18 81,35 22,17 37,37 45,61 7,20 12,49 15,86l-246 0c-4,-17 -10,-27 -17,-32 -20,-12 -70,-19 -152,-19 -83,0 -138,5 -165,14 -21,7 -32,20 -32,39 0,26 20,41 58,43 31,3 140,4 329,6 91,0 157,15 197,46 41,29 61,81 61,155 0,56 -10,101 -32,133 -14,21 -33,38 -58,50 -25,13 -59,22 -103,29 -61,9 -150,14 -267,14 -127,0 -219,-6 -276,-18 -36,-8 -67,-22 -92,-44 -25,-21 -42,-47 -52,-78 -6,-22 -9,-49 -10,-80zm959 0l245 0c2,20 10,36 25,46 25,17 84,26 175,26 91,0 148,-6 172,-16 21,-10 32,-24 32,-44 0,-23 -14,-37 -41,-45 -12,-3 -81,-6 -206,-7 -116,0 -188,-3 -215,-6 -75,-11 -127,-35 -153,-74 -20,-30 -30,-69 -30,-118 0,-95 35,-158 105,-187 53,-21 166,-32 340,-32 121,0 210,5 267,17 31,6 58,18 80,35 23,17 38,37 46,61 7,20 12,49 15,86l-246 0c-5,-17 -10,-27 -17,-32 -20,-12 -70,-19 -152,-19 -83,0 -138,5 -165,14 -21,7 -32,20 -32,39 0,26 20,41 58,43 30,3 140,4 329,6 91,0 156,15 197,46 41,29 61,81 61,155 0,56 -10,101 -32,133 -14,21 -33,38 -58,50 -25,13 -59,22 -103,29 -61,9 -150,14 -267,14 -128,0 -220,-6 -276,-18 -37,-8 -67,-22 -92,-44 -25,-21 -42,-47 -52,-78 -6,-22 -10,-49 -10,-80z"/>
      <path id="1" class="fil2" d="M6925 16542l246 0c2,20 10,36 25,46 25,17 83,26 175,26 90,0 148,-6 172,-16 21,-10 32,-24 32,-44 0,-23 -14,-37 -41,-45 -12,-3 -81,-6 -206,-7 -116,0 -188,-3 -215,-6 -76,-11 -127,-35 -153,-74 -20,-30 -30,-69 -30,-118 0,-95 35,-158 105,-187 53,-21 166,-32 340,-32 121,0 210,5 267,17 31,6 58,18 80,35 22,17 38,37 46,61 7,20 12,49 14,86l-245 0c-5,-17 -10,-27 -17,-32 -20,-12 -71,-19 -152,-19 -83,0 -139,5 -166,14 -21,7 -31,20 -31,39 0,26 19,41 58,43 30,3 140,4 329,6 91,0 156,15 197,46 41,29 61,81 61,155 0,56 -11,101 -32,133 -14,21 -34,38 -59,50 -24,13 -59,22 -102,29 -61,9 -150,14 -267,14 -128,0 -220,-6 -277,-18 -36,-8 -66,-22 -91,-44 -25,-21 -43,-47 -52,-78 -6,-22 -10,-49 -11,-80zm980 -441l241 0 0 645 -241 0 0 -645zm0 -264l241 0 0 181 -241 0 0 -181zm387 0l241 0 0 294 101 -66 0 149 -101 66 0 466 -241 0 0 -322 -102 66 0 -149 102 -67 0 -437zm829 248c124,0 217,6 279,20 67,14 115,47 142,100 15,29 24,60 26,93 3,31 4,68 4,113 0,87 -4,148 -12,181 -19,73 -63,121 -132,144 -53,18 -157,26 -311,26 -137,0 -235,-6 -293,-20 -71,-17 -118,-55 -141,-115 -10,-29 -17,-58 -19,-89 -3,-39 -4,-81 -4,-127 0,-82 5,-138 15,-170 23,-67 68,-111 138,-132 56,-16 159,-24 308,-24zm-5 181c-78,0 -131,6 -159,19 -22,10 -37,27 -45,52 -7,20 -11,51 -11,92 0,45 5,77 13,95 12,24 40,41 83,49 29,5 70,8 121,8 85,0 141,-8 168,-24 19,-12 32,-29 38,-52 4,-18 7,-46 7,-84 0,-49 -6,-83 -17,-102 -12,-22 -40,-37 -83,-45 -30,-5 -68,-8 -115,-8zm471 -165l255 0 148 469 171 -469 228 0 174 461 151 -461 258 0 -241 645 -327 0 -127 -379 -130 379 -321 0 -239 -645zm1425 0l227 0 0 98 13 0c16,-30 35,-53 59,-69 45,-30 117,-45 215,-45 95,0 167,10 217,30 27,11 51,28 74,51 23,23 39,48 49,76 13,36 20,78 21,123 0,22 1,51 1,88l0 293 -242 0 0 -293c0,-52 -2,-88 -6,-108 -7,-33 -28,-56 -61,-66 -29,-9 -71,-13 -125,-13 -83,0 -138,14 -165,43 -18,19 -30,49 -33,91 -2,14 -2,44 -2,88l0 258 -242 0 0 -645zm980 0l242 0 0 645 -242 0 0 -645zm0 -264l242 0 0 181 -242 0 0 -181zm596 466l-240 0c3,-50 13,-88 31,-114 28,-38 65,-65 112,-78 62,-19 170,-28 325,-28 120,0 201,6 244,18 38,10 70,33 96,70 24,34 36,97 36,187l0 388 -232 0 0 -87 -11 0c-18,37 -46,64 -85,80 -23,10 -56,17 -98,20 -34,2 -89,3 -165,3 -84,0 -144,-7 -180,-21 -43,-17 -71,-45 -85,-85 -9,-25 -14,-57 -14,-94 0,-75 19,-129 55,-162 41,-36 104,-56 192,-60 51,-2 116,-3 195,-3 57,0 99,5 126,15 18,6 34,18 50,35l11 0 0 -34c0,-43 -6,-72 -19,-85 -13,-15 -38,-24 -74,-27 -14,-2 -37,-2 -69,-2 -96,0 -154,4 -173,13 -15,7 -25,24 -28,51zm162 172c-81,0 -132,4 -151,14 -24,12 -35,30 -35,54 0,29 15,47 45,55 24,7 64,10 122,10 74,0 127,-4 159,-11 38,-9 57,-29 57,-61 0,-26 -14,-44 -40,-53 -13,-6 -66,-8 -157,-8zm835 -148l573 0 0 185 -575 0 2 -185zm1588 160l246 0c-2,49 -7,88 -15,116 -9,31 -24,59 -47,82 -23,24 -51,41 -83,51 -41,12 -86,20 -136,22 -54,3 -112,4 -175,4 -119,0 -207,-7 -264,-22 -67,-18 -111,-51 -134,-101 -19,-44 -29,-118 -29,-221 0,-96 10,-166 29,-209 24,-52 68,-86 131,-103 59,-15 152,-23 281,-23 132,0 230,9 292,27 64,18 106,53 127,105 13,34 21,83 23,148l-245 0c-4,-30 -13,-51 -28,-63 -27,-24 -84,-35 -170,-35 -71,0 -121,6 -150,20 -18,9 -31,25 -39,48 -6,22 -10,53 -10,94 0,48 6,82 17,102 12,22 39,36 80,44 28,5 63,8 105,8 88,0 143,-11 168,-33 13,-13 22,-33 26,-61zm334 -386l226 0 0 97 13 0c19,-33 41,-57 66,-74 43,-26 104,-39 184,-39 106,0 179,24 216,72 30,38 45,97 45,178 0,11 -1,28 -2,52l-227 0c0,-37 -4,-63 -12,-78 -16,-29 -54,-43 -115,-43 -57,0 -98,16 -122,47 -15,19 -25,49 -29,90 -1,16 -2,41 -2,75l0 268 -241 0 0 -645zm1268 -16c123,0 216,6 279,20 67,14 114,47 141,100 15,29 24,60 27,93 2,31 4,68 4,113 0,87 -5,148 -13,181 -18,73 -62,121 -131,144 -53,18 -157,26 -312,26 -137,0 -234,-6 -293,-20 -70,-17 -117,-55 -140,-115 -11,-29 -17,-58 -19,-89 -3,-39 -4,-81 -4,-127 0,-82 5,-138 15,-170 22,-67 68,-111 138,-132 55,-16 158,-24 308,-24zm-6 181c-77,0 -130,6 -158,19 -22,10 -37,27 -45,52 -7,20 -11,51 -11,92 0,45 4,77 13,95 11,24 39,41 83,49 29,5 69,8 121,8 85,0 141,-8 168,-24 19,-12 31,-29 37,-52 5,-18 7,-46 7,-84 0,-49 -5,-83 -16,-102 -13,-22 -40,-37 -83,-45 -30,-5 -69,-8 -116,-8zm528 276l245 0c2,20 10,36 25,46 25,17 84,26 175,26 91,0 148,-6 172,-16 21,-10 32,-24 32,-44 0,-23 -14,-37 -41,-45 -12,-3 -81,-6 -205,-7 -117,0 -189,-3 -216,-6 -75,-11 -126,-35 -153,-74 -20,-30 -30,-69 -30,-118 0,-95 35,-158 105,-187 53,-21 166,-32 340,-32 121,0 210,5 267,17 31,6 58,18 81,35 22,17 37,37 45,61 7,20 12,49 15,86l-246 0c-4,-17 -10,-27 -17,-32 -20,-12 -70,-19 -152,-19 -83,0 -138,5 -165,14 -21,7 -32,20 -32,39 0,26 20,41 58,43 31,3 140,4 329,6 91,0 157,15 197,46 41,29 61,81 61,155 0,56 -10,101 -32,133 -14,21 -33,38 -58,50 -25,13 -59,22 -103,29 -61,9 -150,14 -267,14 -127,0 -219,-6 -276,-18 -36,-8 -67,-22 -92,-44 -25,-21 -42,-47 -52,-78 -6,-22 -9,-49 -10,-80zm959 0l245 0c2,20 10,36 25,46 25,17 84,26 175,26 91,0 148,-6 172,-16 21,-10 32,-24 32,-44 0,-23 -14,-37 -41,-45 -12,-3 -81,-6 -206,-7 -116,0 -188,-3 -215,-6 -75,-11 -127,-35 -153,-74 -20,-30 -30,-69 -30,-118 0,-95 35,-158 105,-187 53,-21 166,-32 340,-32 121,0 210,5 267,17 31,6 58,18 80,35 23,17 38,37 46,61 7,20 12,49 15,86l-246 0c-5,-17 -10,-27 -17,-32 -20,-12 -70,-19 -152,-19 -83,0 -138,5 -165,14 -21,7 -32,20 -32,39 0,26 20,41 58,43 30,3 140,4 329,6 91,0 156,15 197,46 41,29 61,81 61,155 0,56 -10,101 -32,133 -14,21 -33,38 -58,50 -25,13 -59,22 -103,29 -61,9 -150,14 -267,14 -128,0 -220,-6 -276,-18 -37,-8 -67,-22 -92,-44 -25,-21 -42,-47 -52,-78 -6,-22 -10,-49 -10,-80z"/>
     </g>
     <path class="fil3" d="M18514 14853l0 -419 -1805 0 -14 0 -13 0 -13 -2 -11 -2 -13 -3 -12 -4 -11 -4 -12 -4 -11 -6 -12 -5 -9 -7 -11 -5 -10 -8 -10 -7 -8 -9 -9 -8 -9 -9 -8 -9 -8 -9 -6 -11 -7 -10 -6 -10 -6 -11 -5 -12 -5 -11 -4 -11 -4 -13 -2 -12 -3 -12 0 -13 -1 -13 -1 -14 0 -688 -844 843 0 731 0 14 -1 14 -1 14 -3 13 -3 13 -4 13 -5 12 -5 12 -5 11 -7 12 -6 9 -7 11 -7 10 -9 9 -8 8 -9 9 -9 8 -9 7 -10 8 -11 6 -9 5 -11 6 -11 5 -11 5 -10 4 -12 3 -11 3 -12 3 -11 2 -11 1 -12 1 -12 0 -143 0 -12 0 -11 -1 -11 -1 -12 -2 -11 -2 -12 -3 -10 -4 -12 -3 -11 -5 -10 -5 -11 -5 -11 -6 -10 -6 -10 -7 -9 -7 -10 -8 -9 -8 -8 -8 -8 -10 -8 -10 -7 -10 -7 -11 -6 -10 -6 -12 -5 -12 -4 -12 -4 -13 -3 -14 -3 -13 -2 -14 -1 -15 -1 -15 0 -730 -847 -847 0 693 0 13 -1 14 -2 12 -2 12 -3 13 -3 12 -4 11 -5 12 -5 11 -5 12 -6 9 -7 11 -7 10 -8 10 -8 8 -8 9 -9 9 -9 8 -10 8 -9 7 -11 6 -11 6 -11 6 -10 5 -12 5 -12 4 -12 3 -12 3 -13 3 -13 1 -12 0 -13 1 -406 0 642 631 9 10 9 10 8 10 6 11 5 10 5 11 4 11 3 10 2 10 1 11 0 11 0 10 -1 10 -2 10 -3 10 -4 10 -4 8 -4 9 -5 9 -7 8 -7 8 -7 7 -8 6 -8 7 -10 5 -10 5 -10 5 -11 3 -11 3 -12 2 -13 2 -12 0 -438 0 -258 -256 -639 -627 -593 0 0 630 0 12 -1 13 -2 13 -2 12 -3 13 -3 12 -3 12 -5 11 -5 11 -6 11 -6 10 -7 11 -7 10 -7 10 -8 9 -9 8 -9 9 -9 8 -9 8 -10 7 -11 6 -11 6 -10 6 -11 5 -12 5 -12 4 -12 3 -12 3 -13 2 -12 2 -13 1 -13 0 -70 0 -3 0 -3 0 -3 0 -3 0 -3 0 -3 0 -3 0 -3 -1 -258 0 -13 0 -14 -1 -13 -2 -12 -3 -12 -3 -12 -4 -11 -5 -11 -5 -11 -5 -11 -6 -9 -6 -10 -7 -10 -8 -10 -8 -9 -8 -8 -8 -8 -9 -9 -9 -8 -9 -7 -10 -7 -9 -7 -10 -8 -10 -6 -10 -7 -9 -6 -11 -5 -10 -6 -10 -6 -10 -6 -8 -5 -10 -5 -10 -787 -1398 -652 1163 755 0 26 2 23 4 22 5 20 9 19 11 16 13 15 13 14 16 11 18 11 17 9 20 7 20 5 21 4 21 3 22 0 22 0 22 -3 22 -4 21 -6 21 -7 21 -8 18 -11 19 -10 17 -14 16 -15 14 -15 12 -18 11 -18 8 -20 7 -22 4 -23 1 -1497 0 -9 0 -10 -1 -9 -1 -10 -2 -9 -3 -9 -3 -9 -4 -9 -5 -9 -5 -7 -6 -8 -6 -8 -6 -6 -8 -7 -8 -5 -9 -4 -9 -5 -10 -3 -10 -3 -12 -1 -12 -1 -12 0 -14 2 -14 2 -14 4 -15 4 -17 6 -16 7 -18 9 -17 10 -19 12 -19 13 -21 6 -11 332 -555 -1668 0 0 630 -1 12 -1 13 -1 13 -2 12 -3 13 -4 12 -4 12 -5 11 -5 11 -6 11 -5 10 -7 11 -7 10 -8 10 -8 9 -8 8 -8 9 -10 8 -10 8 -10 7 -9 6 -11 6 -11 6 -12 5 -11 5 -12 4 -12 3 -13 3 -11 2 -13 2 -13 1 -13 0 -70 0 -12 0 -13 -1 -13 -2 -13 -2 -12 -3 -12 -3 -12 -4 -11 -5 -11 -5 -11 -6 -11 -6 -10 -6 -10 -7 -10 -8 -9 -8 -8 -9 -9 -8 -8 -9 -8 -10 -7 -10 -7 -11 -5 -10 -6 -11 -5 -11 -5 -11 -4 -12 -3 -12 -3 -13 -2 -12 -2 -13 -1 -13 0 -12 0 -1730 0 -1 0 -1 0 -1 0 -2 0 -1 0 -4 0 -1 0 0 0 -2 0 -1 0 -1 0 -1 0 0 0 -2 0 -2 0 0 1 -2 0 0 0 -1 0 -1 0 -2 1 -7 1 -6 1 -5 1 -7 1 -6 2 -6 1 -7 2 -6 1 -2 2 -5 0 -1 0 0 0 -1 1 -1 0 0 0 -1 1 -1 0 -1 0 0 0 -1 1 0 1 -3 0 -1 1 -1 0 -1 0 0 0 -1 1 -1 0 -1 0 0 1 -1 1 -3 0 0 1 -1 0 -1 0 -1 1 0 0 -2 1 -1 0 -1 1 -1 0 0 0 -1 1 -1 0 -1 2 -3 0 -1 1 0 0 -1 1 -3 0 0 1 -1 0 0 1 -1 0 -1 0 0 0 -1 0 -1 1 0 0 0 0 -1 1 0 0 -1 1 -1 0 0 0 -1 2 -3 0 0 1 -1 1 -1 4 -7 5 -7 6 -7 5 -7 6 -5 6 -7 5 -6 7 -6 0 -1 0 0 1 -1 1 0 1 -1 0 0 0 -1 3 -2 0 0 1 -1 1 -1 1 0 2 -2 0 0 3 -2 1 -1 0 0 1 -1 2 -2 1 0 0 0 1 -1 1 0 1 -2 1 0 1 -1 1 0 0 -1 1 0 0 0 1 -1 1 0 0 -1 1 0 1 -1 1 0 1 0 2 -1 0 -1 0 0 0 0 1 -1 1 0 2 -2 0 0 1 0 1 -1 1 0 1 -1 0 0 1 -1 7 -4 8 -4 7 -3 8 -3 6 -3 8 -3 8 -3 8 -2 9 -2 7 -2 8 -2 9 -1 8 -1 9 -1 8 0 8 0 71 0 0 0 2040 0 14 0 13 1 12 2 13 2 12 3 12 4 11 4 12 4 12 5 11 6 10 6 10 6 10 8 10 7 9 8 9 9 8 9 8 8 8 10 6 10 7 11 6 10 6 11 5 12 5 11 4 11 4 13 2 12 2 12 2 13 1 13 0 13 0 477 329 -548 0 -1 1 -2 5 -9 6 -9 6 -9 7 -9 7 -9 7 -8 7 -8 8 -9 8 -8 8 -8 8 -7 9 -6 8 -7 9 -7 9 -7 9 -6 9 -6 10 -6 10 -4 9 -5 11 -5 9 -4 10 -4 10 -4 11 -3 9 -3 11 -3 11 -2 10 -2 10 -1 11 -1 10 -1 11 0 234 0 11 0 11 1 10 1 11 1 11 2 11 3 10 2 11 4 11 3 11 4 9 4 11 5 10 5 10 5 9 5 10 6 10 6 10 7 8 7 9 7 9 7 9 7 9 8 7 9 8 8 8 9 7 8 8 9 6 9 6 10 6 9 6 10 692 1215 0 -1142 0 -1 0 -1 0 0 0 -1 0 -4 0 -3 0 0 0 -1 0 -1 0 -1 0 -1 1 -1 0 -1 0 0 0 -2 0 -2 0 -2 0 0 0 -1 0 -1 0 -2 1 -7 1 -6 1 -5 1 -7 2 -6 1 -6 2 -7 2 -6 0 -2 1 -4 0 0 0 -1 1 -1 0 -1 0 0 1 -1 0 -1 0 -1 1 -1 0 0 0 -1 0 0 1 -2 0 0 0 -1 1 -1 0 -1 0 -1 1 0 0 -1 0 -1 1 -1 0 -2 1 0 0 -1 1 -1 0 -1 0 0 1 -2 0 0 1 -1 0 -2 1 -1 0 -1 1 -1 0 0 0 -1 1 -1 1 -2 0 0 0 -1 1 -1 0 0 0 -1 1 -1 1 -2 0 -1 1 0 0 -1 0 -1 2 -2 0 0 1 0 0 -2 1 0 0 -1 0 0 1 -2 0 0 1 0 1 -2 0 0 1 -2 5 -7 5 -7 5 -7 5 -7 5 -5 6 -7 6 -6 7 -6 0 0 1 -1 1 -1 0 0 1 -1 0 0 1 -1 2 -2 1 0 2 -2 0 0 3 -2 0 0 2 -2 0 0 0 -1 1 0 0 -1 2 -1 1 -1 1 0 0 -1 1 0 3 -2 0 -1 1 0 1 -1 1 0 0 0 1 -1 0 0 1 -1 0 0 1 -1 1 0 0 0 1 0 1 -1 1 0 1 -1 0 0 1 0 1 -1 0 0 2 -2 1 0 1 0 0 -1 1 0 2 -1 0 0 1 -1 7 -4 6 -4 8 -3 7 -3 8 -3 8 -3 8 -3 7 -2 8 -2 8 -2 9 -2 8 -1 8 -1 8 -1 9 0 9 0 69 0 1 0 1879 0 0 0 928 0 659 657 657 -657 750 0 2 0 2 0 4 0 2 0 2 0 2 0 2 0 2111 0 12 0 14 1 13 1 11 3 13 2 12 4 12 4 11 5 11 5 12 6 10 6 10 6 10 7 10 8 9 8 8 8 9 10 8 8 8 10 7 10 7 10 5 10 6 12 5 11 5 12 4 11 3 12 3 13 3 11 1 13 1 13 1 14 0 223 -2088 0 0 405 1834 0 12 1 14 1 13 1 11 2 13 2 12 4 12 4 11 5 11 5 12 6 10 6 10 7 10 6 10 8 9 8 8 8 9 9 8 9 8 10 7 10 7 10 5 11 6 10 5 12 5 12 4 11 3 12 3 13 3 12 1 12 1 13 1 14 0 846 -1 13 -1 13 -1 13 -3 12 -3 12 -3 12 -4 12 -5 11 -5 12 -6 11 -5 11 -7 9 -7 10 -8 10 -8 10 -9 8 -8 8 -9 9 -10 7 -10 7 -10 7 -10 6 -12 5 -11 5 -11 5 -12 4 -12 4 -13 3 -11 2 -13 2 -14 1 -12 0 -2111 0 -14 0 -13 -1 -13 -2 -11 -2 -13 -3 -12 -4 -11 -4 -12 -5 -11 -5 -12 -5 -10 -6 -10 -7 -10 -7 -10 -8 -8 -8 -9 -8 -9 -8 -8 -10 -8 -10 -6 -10 -7 -9 -6 -11 -6 -11 -5 -12 -5 -11 -4 -12 -4 -12 -2 -12 -3 -12 0 -13 -1 -13 -1 -13 0 -210 2059 0zm-6442 -1307l0 360 1399 0 9 -1 10 -1 8 -3 9 -3 8 -4 8 -5 8 -5 6 -6 6 -6 5 -8 5 -8 4 -8 3 -8 3 -9 1 -9 1 -10 0 -173 -1 -9 -1 -9 -3 -9 -3 -9 -4 -9 -5 -7 -5 -7 -6 -7 -6 -6 -8 -5 -8 -5 -8 -4 -9 -4 -8 -2 -10 -1 -9 0 -1399 0zm-4459 0l0 360 1398 0 9 -1 9 -1 10 -3 8 -3 9 -4 7 -5 7 -5 7 -6 6 -6 6 -8 4 -8 5 -8 2 -8 2 -9 2 -9 0 -10 0 -173 0 -9 -2 -9 -2 -9 -2 -9 -5 -9 -4 -7 -6 -7 -6 -7 -7 -6 -7 -5 -7 -5 -9 -4 -8 -4 -10 -2 -9 -1 -9 0 -1398 0z"/>
    </g>
    <g>
     <path class="fil4" d="M2399 13031l3245 0c299,0 545,244 545,543l0 2694c0,300 -246,544 -545,544l-3245 0c-299,0 -545,-244 -545,-544l0 -2694c0,-299 246,-543 545,-543z"/>
     <path class="fil5" d="M4032 13699c283,0 512,229 512,512 0,282 -229,511 -512,511 -282,0 -512,-229 -512,-511 0,-283 230,-512 512,-512zm774 1480c102,0 184,81 184,183 0,102 -82,184 -184,184 -133,0 -148,-88 -267,-1l-252 170c-78,60 -72,173 13,243 138,113 313,186 506,186 432,0 782,-350 782,-782 0,-431 -350,-781 -782,-781 -320,0 -594,192 -716,467 -27,61 -91,60 -119,-2 -121,-274 -396,-465 -715,-465 -431,0 -781,350 -781,781 0,432 350,782 781,782 193,0 368,-73 507,-186 84,-70 90,-183 12,-243l-251 -170c-119,-87 -134,1 -268,1 -102,0 -183,-82 -183,-184 0,-102 81,-183 183,-183 45,0 84,17 117,41l533 376c92,65 161,62 235,10l548 -386c34,-24 73,-41 117,-41z"/>
     <path class="fil6" d="M4023 13661c282,0 511,228 511,511 0,283 -229,512 -511,512 -283,0 -512,-229 -512,-512 0,-283 229,-511 512,-511zm774 1479c101,0 184,82 184,184 0,101 -83,184 -184,184 -134,0 -148,-89 -268,-2l-252 171c-78,60 -72,173 13,243 139,113 313,186 507,186 432,0 782,-351 782,-782 0,-432 -350,-782 -782,-782 -320,0 -595,193 -716,468 -27,61 -92,60 -119,-2 -122,-275 -396,-466 -716,-466 -432,0 -782,350 -782,782 0,431 350,782 782,782 194,0 368,-73 507,-186 85,-70 91,-183 13,-243l-252 -171c-119,-87 -134,2 -268,2 -101,0 -184,-83 -184,-184 0,-102 83,-184 184,-184 45,0 83,18 117,42l533 376c91,65 160,62 234,10l550 -386c34,-24 72,-42 117,-42z"/>
    </g>
   </g>
  </g>
 </g>
</svg>
