<?xml version="1.0" encoding="UTF-8"?>
<!DOCTYPE svg PUBLIC "-//W3C//DTD SVG 1.1//EN" "http://www.w3.org/Graphics/SVG/1.1/DTD/svg11.dtd">
<!-- Creator: CorelDRAW X8 -->
<svg xmlns="http://www.w3.org/2000/svg" xml:space="preserve" width="210mm" height="297mm" version="1.1" style="shape-rendering:geometricPrecision; text-rendering:geometricPrecision; image-rendering:optimizeQuality; fill-rule:evenodd; clip-rule:evenodd"
viewBox="0 0 21000 29700"
 xmlns:xlink="http://www.w3.org/1999/xlink">
 <defs>
  <style type="text/css">
   <![CDATA[
    .fil1 {fill:#2B2A29}
    .fil0 {fill:#2B2A29;fill-rule:nonzero}
   ]]>
  </style>
 </defs>
 <g id="Warstwa_x0020_1">
  <metadata id="CorelCorpID_0Corel-Layer"/>
  <g id="_2600750548144">
   <path class="fil0" d="M3620 14131l277 0c2,24 12,41 28,52 29,20 95,30 198,30 103,0 168,-6 194,-18 25,-11 37,-27 37,-50 0,-26 -16,-42 -46,-51 -14,-3 -92,-6 -233,-8 -131,0 -213,-2 -243,-7 -86,-11 -144,-39 -174,-83 -22,-34 -34,-78 -34,-133 0,-108 40,-179 119,-211 60,-25 188,-37 385,-37 137,0 237,6 302,19 35,7 65,20 90,40 26,19 43,42 52,69 8,23 13,55 17,97l-278 0c-5,-19 -11,-31 -19,-36 -23,-14 -80,-21 -172,-21 -94,0 -157,5 -187,16 -24,8 -36,22 -36,43 0,30 22,46 66,49 34,3 158,5 372,6 102,1 176,18 222,52 46,34 70,92 70,176 0,63 -12,113 -37,150 -16,24 -38,43 -66,57 -28,14 -66,25 -116,32 -69,11 -169,17 -302,17 -144,0 -248,-7 -312,-20 -41,-9 -75,-26 -104,-50 -28,-24 -48,-54 -58,-89 -7,-25 -11,-55 -12,-91zm1211 -498l273 0 0 729 -273 0 0 -729zm0 -299l273 0 0 205 -273 0 0 -205zm542 0l273 0 0 333 114 -75 0 169 -114 75 0 526 -273 0 0 -364 -116 75 0 -169 116 -75 0 -495zm1042 281c139,0 244,7 315,22 76,16 130,54 160,114 17,33 27,68 30,105 3,35 5,77 5,127 0,99 -5,168 -15,205 -20,83 -70,137 -148,164 -60,19 -177,29 -352,29 -155,0 -265,-8 -332,-24 -79,-18 -132,-62 -158,-130 -12,-32 -20,-65 -22,-100 -3,-43 -5,-91 -5,-144 0,-92 6,-156 18,-192 25,-75 77,-125 155,-149 64,-18 180,-27 349,-27zm-6 205c-88,0 -148,7 -180,21 -25,11 -42,31 -51,59 -8,23 -12,58 -12,104 0,51 5,87 15,107 13,27 44,46 94,56 32,6 78,9 137,9 95,0 159,-9 190,-28 21,-13 35,-32 42,-58 5,-21 8,-52 8,-95 0,-56 -6,-94 -19,-116 -14,-25 -45,-42 -94,-50 -34,-6 -77,-9 -130,-9zm636 -187l289 0 167 530 193 -530 259 0 197 522 170 -522 291 0 -272 729 -369 0 -144 -429 -147 429 -363 0 -271 -729zm1716 0l256 0 0 111 16 0c17,-34 39,-60 66,-78 51,-34 132,-51 243,-51 107,0 189,11 245,33 31,13 59,32 84,59 26,26 44,54 55,85 15,41 23,88 24,140 1,24 1,57 1,99l0 331 -273 0 0 -331c0,-59 -2,-99 -7,-122 -8,-38 -31,-63 -69,-74 -33,-10 -80,-15 -141,-15 -94,0 -156,16 -187,48 -21,21 -33,56 -38,103 -1,16 -2,49 -2,100l0 291 -273 0 0 -729zm1213 0l273 0 0 729 -273 0 0 -729zm0 -299l273 0 0 205 -273 0 0 -205zm777 527l-272 0c4,-57 16,-99 36,-128 31,-44 73,-74 126,-89 70,-21 193,-31 369,-31 135,0 227,6 274,20 44,11 80,38 109,79 27,39 41,109 41,211l0 439 -262 0 0 -98 -13 0c-20,42 -52,72 -95,91 -26,11 -63,19 -112,22 -38,3 -100,4 -186,4 -95,0 -163,-8 -203,-24 -49,-20 -81,-52 -97,-96 -10,-29 -15,-64 -15,-106 0,-85 20,-146 62,-184 46,-40 118,-63 217,-67 57,-3 131,-4 221,-4 64,0 111,5 142,16 20,8 38,21 56,41l12 0 0 -39c0,-49 -7,-81 -21,-96 -15,-17 -43,-27 -83,-31 -16,-1 -42,-2 -79,-2 -108,0 -173,5 -195,15 -17,8 -28,27 -32,57zm183 195c-91,0 -149,5 -171,16 -26,13 -39,33 -39,61 0,32 17,53 51,62 27,8 73,12 137,12 85,0 145,-5 181,-13 42,-10 64,-33 64,-70 0,-29 -15,-48 -45,-60 -15,-5 -74,-8 -178,-8z"/>
   <path class="fil0" d="M13393 14766l-10810 -1c-21,0 -38,17 -38,38l0 94c0,21 17,38 38,38 3646,0 7164,0 10810,1l0 -170z"/>
   <path class="fil0" d="M5433 15776l277 0c-2,56 -7,100 -16,132 -10,35 -28,66 -54,93 -26,26 -57,45 -93,57 -46,14 -97,22 -153,25 -62,3 -128,5 -199,5 -135,0 -234,-9 -298,-26 -76,-19 -126,-58 -152,-114 -22,-49 -33,-133 -33,-250 0,-108 11,-187 33,-235 27,-59 77,-98 149,-117 66,-17 171,-26 317,-26 150,0 260,10 330,30 72,21 120,60 144,119 15,39 24,94 26,167l-278 0c-3,-33 -14,-57 -31,-71 -31,-27 -95,-40 -192,-40 -81,0 -137,8 -169,23 -21,10 -36,29 -44,54 -8,25 -12,60 -12,106 0,55 6,94 19,116 14,25 44,41 91,50 32,6 71,9 119,9 99,0 162,-13 189,-38 15,-14 25,-37 30,-69zm481 -436l256 0 0 110 15 0c21,-37 46,-65 75,-83 47,-30 116,-45 207,-45 120,0 202,27 245,81 33,43 50,110 50,202 0,12 0,31 -2,59l-257 0c0,-42 -4,-72 -13,-89 -18,-32 -61,-48 -130,-48 -65,0 -111,17 -138,52 -17,22 -28,56 -32,102 -2,18 -3,46 -3,85l0 303 -273 0 0 -729zm1538 -18c139,0 245,7 315,22 76,16 130,54 160,114 17,33 28,68 30,105 3,35 5,77 5,127 0,99 -5,168 -14,205 -21,83 -71,137 -149,164 -60,19 -177,29 -352,29 -155,0 -265,-8 -331,-23 -80,-19 -133,-62 -159,-130 -12,-33 -20,-66 -22,-101 -3,-43 -4,-91 -4,-144 0,-92 5,-156 17,-192 25,-75 77,-125 155,-149 64,-18 180,-27 349,-27zm-6 205c-88,0 -148,7 -180,21 -25,11 -41,31 -50,59 -8,23 -13,58 -13,104 0,51 5,87 15,107 13,28 45,46 94,56 33,6 78,9 137,9 95,0 159,-9 190,-28 21,-12 35,-32 42,-58 5,-21 8,-52 8,-95 0,-56 -6,-94 -19,-116 -14,-25 -45,-42 -93,-50 -35,-6 -78,-9 -131,-9zm700 311l278 0c2,24 11,41 28,52 29,20 95,30 198,30 102,0 167,-6 194,-18 24,-11 36,-27 36,-50 0,-25 -15,-42 -46,-51 -13,-3 -91,-6 -232,-8 -132,0 -213,-2 -243,-7 -86,-11 -144,-39 -174,-83 -23,-33 -34,-78 -34,-133 0,-108 40,-179 119,-211 60,-25 188,-37 384,-37 138,0 238,6 302,19 35,7 66,21 91,40 25,19 43,42 52,69 8,23 13,55 16,97l-277 0c-6,-19 -12,-31 -19,-36 -23,-14 -80,-21 -172,-21 -94,0 -157,5 -187,16 -24,8 -36,22 -36,43 0,30 22,46 66,49 34,3 158,5 372,6 102,1 176,18 222,52 46,34 69,92 69,176 0,63 -12,114 -36,150 -16,24 -38,43 -66,57 -28,14 -67,25 -116,32 -69,11 -169,17 -302,17 -144,0 -248,-7 -312,-20 -41,-9 -76,-26 -104,-50 -29,-24 -48,-54 -59,-89 -7,-25 -11,-55 -12,-91zm1189 0l277 0c2,24 12,41 28,52 29,20 95,30 198,30 103,0 167,-6 194,-18 25,-11 37,-27 37,-50 0,-25 -16,-42 -46,-51 -14,-3 -92,-6 -233,-8 -131,0 -213,-2 -243,-7 -86,-11 -144,-39 -174,-83 -22,-33 -34,-78 -34,-133 0,-108 40,-179 119,-211 60,-25 188,-37 385,-37 137,0 237,6 302,19 35,7 65,21 90,40 26,19 43,42 52,69 8,23 13,55 17,97l-278 0c-5,-19 -12,-31 -19,-36 -23,-14 -80,-21 -172,-21 -94,0 -157,5 -187,16 -24,8 -36,22 -36,43 0,30 22,46 66,49 34,3 158,5 372,6 102,1 176,18 222,52 46,34 70,92 70,176 0,63 -13,114 -37,150 -16,24 -38,43 -66,57 -28,14 -67,25 -116,32 -69,11 -169,17 -302,17 -144,0 -248,-7 -312,-20 -41,-9 -76,-26 -104,-50 -28,-24 -48,-54 -58,-89 -7,-25 -11,-55 -12,-91z"/>
   <path class="fil1" d="M13583 14019l596 0c302,-585 912,-985 1616,-985 703,0 1313,400 1615,985l855 0c155,0 240,103 159,246l-693 1226c-78,139 -145,190 -287,190l-34 0c-302,585 -912,985 -1615,985 -704,0 -1314,-400 -1616,-985l-596 0c-105,0 -190,-86 -190,-190l0 -1282c0,-104 85,-190 190,-190zm2286 286l0 253 0 0 0 390 -572 0 0 -43 430 -295 0 -305 -80 0 -648 470 0 418 870 0 0 203 316 0 0 -203 161 0 142 -245 -303 0 0 -643 -316 0zm1332 -237l-903 1565 -117 0 902 -1565 118 0zm-49 237l590 0 0 252 -463 839 -420 0 462 -816 -328 0 159 -275zm-598 0l310 0 -159 275 -149 0 -2 0 0 -275zm-2401 407l-322 0c0,-88 3,-155 10,-201 9,-56 30,-101 62,-132 32,-31 79,-53 140,-64 84,-16 233,-23 448,-23 203,0 330,2 379,7 82,7 142,26 179,56 37,30 61,70 70,121 5,34 9,73 11,115l-203 148 0 237c-49,11 -108,19 -178,23 -292,18 -458,31 -499,36 -47,5 -77,20 -89,46 -5,10 -7,32 -9,65l775 0 0 119 222 0 0 131 -1302 0c-2,-43 -3,-81 -3,-111 0,-135 4,-229 12,-282 16,-103 75,-167 177,-192 52,-13 108,-22 166,-27l228 -18c165,-12 259,-20 281,-23 51,-5 84,-17 98,-35 9,-11 14,-34 14,-68 0,-38 -6,-63 -16,-76 -14,-16 -43,-27 -89,-30 -26,-2 -92,-3 -197,-3 -148,0 -247,3 -299,11 -30,4 -49,15 -56,33 -6,17 -9,63 -10,137zm2713 1052l-153 -123c-229,266 -562,420 -915,419 -428,0 -803,-220 -1018,-553l-226 0c234,446 702,748 1244,749 413,0 801,-179 1068,-492zm-2082 -1575c177,-272 461,-472 806,-534 228,-40 458,-15 671,73l38 16 -87 192 637 -51 -384 -511 -86 191 -35 -15c-250,-104 -521,-135 -787,-87 -443,79 -799,353 -996,718 75,0 149,2 223,8z"/>
  </g>
 </g>
</svg>
